<svg width="256" height="166" viewBox="0 0 256 166" fill="none" xmlns="http://www.w3.org/2000/svg">
<g clip-path="url(#clip0)">
<path fill-rule="evenodd" clip-rule="evenodd" d="M78.728 64.0209C80.0669 58.8084 81.3523 53.4622 83.3339 48.4367C84.5925 45.3092 85.9046 42.1816 87.2435 39.0808C87.431 38.6531 87.5113 38.2255 87.8594 38.0116C88.3414 37.7176 89.3322 37.7176 89.8678 37.6374C97.5264 36.2474 105.265 35.1781 113.031 34.5633C121.895 33.8683 130.517 34.1891 139.3 35.6325C146.798 36.8622 154.216 38.573 161.553 40.4976C162.624 40.7916 163.722 41.0857 164.793 41.3797C165.302 41.5134 166.132 41.5936 166.561 41.8876C167.498 42.5024 167.819 45.0686 168.167 46.1379C168.649 47.5813 168.917 49.5862 169.801 50.8158C171.14 52.6602 173.202 54.2374 174.862 55.7878C180.673 61.134 187.073 65.999 194.597 68.6187C206.192 72.7085 218.484 75.2747 230.534 77.7874C230.802 77.8409 231.096 77.8944 231.364 77.9746C228.258 81.4229 225.125 84.8712 222.018 88.3195C220.251 90.2709 218.51 92.1955 216.743 94.1469C215.833 95.1359 215.94 95.323 214.654 95.0557C208.254 93.6657 201.854 92.142 195.561 90.2709C192.482 89.362 189.349 88.4264 186.484 86.9562C182.547 84.9246 178.825 82.4119 175.21 79.8457C171.997 77.5469 168.837 75.1411 165.731 72.6551C165.115 72.1739 162.919 69.8216 162.196 69.982C161.58 70.1156 160.509 71.5056 160.054 71.9066C158.849 72.9758 157.67 74.0451 156.465 75.1143C154.537 76.7984 152.582 78.8834 150.36 80.1398C148.003 81.4763 145.299 82.3852 142.808 83.4544C141.416 84.0425 140.023 84.6306 138.631 85.2454C138.256 85.4058 137.774 85.7266 137.372 85.7533C136.221 85.78 134.534 84.8444 133.463 84.4702C130.705 83.5346 127.973 82.5188 125.242 81.4496C119.458 79.1507 113.085 76.6647 108.318 72.5481C107.488 71.8264 106.685 71.0245 106.122 70.0622C105.935 69.7414 105.64 69.2602 105.64 68.8593C105.613 68.2445 105.961 68.1108 106.497 67.7098C109.202 65.6783 112.12 63.914 115.013 62.1498C115.682 61.7221 116.378 61.3211 117.048 60.8934L83.441 63.5932C81.8611 63.7536 80.3079 63.8873 78.728 64.0209Z" fill="white"/>
<path fill-rule="evenodd" clip-rule="evenodd" d="M128.751 0.160445C132.312 0.320831 135.927 0.481218 139.462 0.989108C142.97 1.497 146.237 2.75336 149.423 4.30376C155.127 7.08379 160.992 10.4519 164.66 15.7981C166.374 18.2841 167.793 20.9038 170.15 22.8819C170.712 23.3363 171.301 23.8976 172.051 24.0313C172.64 24.1382 173.149 23.8976 173.738 23.8709C174.836 23.8175 175.238 24.4055 175.238 25.4748C176.068 25.154 176.951 24.86 177.862 24.9669C178.612 25.0738 179.201 25.5282 179.924 25.7154C181.209 26.0629 182.495 25.555 183.726 25.154C186.833 24.1917 190.26 23.4699 193.554 23.8174C195.723 24.0313 198.32 24.9669 197.196 27.7469C196.259 30.0458 192.804 31.222 190.608 31.7833C188.734 32.2645 186.243 31.8368 186.404 34.403C186.511 36.1939 186.779 38.1186 188.68 38.6799C189.725 39.0007 193.42 39.4819 191.278 41.0857C189.671 42.2886 189.136 44.3737 187.904 45.9508C186.351 47.9556 184.262 49.5862 181.798 50.308C179.067 51.1366 176.148 50.9762 173.336 51.297C175.318 54.0236 178.183 55.9215 180.808 57.9798C183.539 60.1717 186.19 62.5508 189.377 64.1279C192.215 65.5179 195.295 66.507 198.24 67.6832C201.32 68.9395 204.426 70.1691 207.613 71.1315C214.039 73.0828 220.787 74.4461 227.402 75.649C230.669 76.2371 233.855 76.1569 237.149 76.2104C240.523 76.2638 243.897 76.8519 247.218 77.4667C248.824 77.7608 250.458 77.9479 252.064 78.2419C252.841 78.3756 255.894 78.6964 256.001 79.8191C256.188 81.6635 254.18 82.6793 252.734 83.1872C252.118 83.401 251.1 83.3743 250.565 83.6683C249.976 83.9891 250.217 84.4703 250.136 85.1118C250.029 86.0207 249.547 86.689 248.797 87.1968C248.182 87.6245 247.432 87.5978 247.86 88.3997C248.048 88.774 248.556 88.9878 248.771 89.3888C249.038 89.8165 249.146 90.2976 249.092 90.8055C249.012 91.6877 248.423 92.3559 247.592 92.6767C246.28 93.1846 244.754 92.8104 243.415 92.65C241.166 92.3827 238.916 92.3559 236.694 91.8748C234.391 91.3669 232.141 90.5917 229.838 90.0571C228.66 89.7898 227.482 89.5759 226.331 89.2017C225.581 88.9611 224.483 88.3463 223.679 88.5334C222.93 88.7205 222.341 89.6294 221.859 90.1373C221.189 90.859 220.52 91.6075 219.85 92.3292C219.395 92.8104 218.94 93.2648 218.431 93.6925C218.27 93.8261 217.279 94.441 217.253 94.6013C217.226 95.0558 218.297 95.0558 218.538 95.2429C219.904 96.3121 217.869 96.9804 216.985 96.927C214.95 96.7933 212.915 96.5527 210.906 96.2587C206.113 95.5637 201.346 94.7885 196.794 93.1846C192.269 91.6075 187.85 89.9234 183.673 87.5711C179.656 85.2989 175.773 82.7595 171.971 80.1398C170.123 78.8835 168.275 77.5469 166.722 75.9431C165.196 74.3659 163.964 72.5482 162.705 70.7572C159.679 73.6709 156.787 76.7183 153.547 79.3914C150.468 81.9308 146.746 83.2941 143.157 84.9247C143.264 85.6732 146.772 86.1276 147.415 86.3147C150.334 87.1968 153.146 88.6403 155.984 89.7363C160.724 91.6075 165.196 94.0133 166.776 99.1724C168.329 104.251 166.535 109.357 164.339 113.955C161.741 119.381 158.689 124.38 154.967 129.111C153.387 131.116 151.673 132.96 149.959 134.832C148.486 136.435 147.201 138.307 147.843 140.579C149.022 140.205 149.263 141.14 148.486 141.915C147.79 142.61 146.612 142.744 145.674 142.851C142.863 143.198 139.971 143.065 137.186 142.824C132.071 142.343 126.956 141.06 122.351 138.841C120.048 137.745 119.218 139.51 117.638 140.9C116.406 141.969 114.692 142.691 113.728 144.081C112.951 145.23 113.46 147.048 115.067 146.62C116.325 146.273 117.343 144.883 118.655 144.829C121.012 144.722 116.566 148.09 115.977 148.518C117.102 149.534 118.387 148.144 119.539 147.903C120.637 147.689 120.931 148.251 120.342 149.159C119.887 149.881 118.468 150.362 119.405 151.245C120.182 151.966 121.922 152.34 122.886 152.635C125.885 153.624 128.884 154.319 132.018 154.746C133.035 154.88 134.642 154.8 135.472 155.521C136.543 156.457 136.034 158.034 135.472 159.103C133.41 163.193 129.072 165.225 124.654 165.519C121.922 165.706 119.164 165.519 116.433 165.679C113.433 165.84 110.434 166.08 107.435 165.973C102.615 165.813 99.5355 162.338 97.1255 158.489C95.5991 156.056 94.1799 153.543 92.8678 151.004C92.359 150.015 91.2611 148.972 91.0736 147.85C90.9129 146.834 91.5556 146.032 92.1715 145.31C93.8318 143.439 95.8134 141.996 97.7414 140.445C98.8393 139.563 99.2678 138.815 99.7765 137.531C100.178 136.435 100.982 135.981 101.678 135.126C102.454 134.163 102.213 134.003 101.597 133.228C100.955 132.426 101.223 131.223 101.49 130.287C101.865 128.951 102.695 128.683 103.9 128.256C104.998 127.855 105.962 127.187 106.926 126.545C111.773 123.417 116.352 119.889 121.279 116.842C126.126 113.848 131.187 111.201 135.82 107.86C132.071 107.352 128.751 105.321 125.189 104.118C123.368 103.503 121.574 102.835 119.807 102.086C119.137 101.792 118.361 101.525 117.745 101.097C117.129 100.669 116.674 100.081 116.058 99.6803C114.558 98.6912 112.764 98.1566 111.157 97.3814C109.417 96.5527 107.703 95.6706 106.069 94.6281C104.57 93.639 103.097 92.5431 101.865 91.2332C100.874 90.2174 99.8837 88.8542 98.4644 88.3997C98.6251 90.3778 101.062 92.0084 102.401 93.1846C104.57 95.1092 106.846 96.7398 109.256 98.317C106.525 100.643 103.204 102.166 100.018 103.743C96.4293 105.508 92.9481 107.486 89.3598 109.277C86.3339 110.8 83.1473 111.977 80.0678 113.393C76.7473 114.917 73.3196 116.2 69.8652 117.349C66.7322 118.392 63.7866 119.515 60.8142 120.985C57.9489 122.428 54.8694 123.524 51.7899 124.433C48.3355 125.476 45.0418 126.438 41.7213 127.855C38.7222 129.138 35.723 129.94 32.5364 130.635C31.492 130.875 30.1531 131.276 29.4033 130.261C28.841 129.485 28.7607 128.309 28.6 127.4C27.9841 123.952 27.9305 120.45 27.395 116.975C25.3063 117.617 23.3247 118.365 21.1289 118.472C19.7364 118.526 18.9063 118.686 18.5581 120.183C19.3615 120.263 22.2268 120.317 22.3071 121.439C22.3874 122.455 20.6468 122.482 20.0309 122.509C18.933 122.562 17.9422 122.375 17.3531 123.444C18.21 123.765 20.1381 123.177 20.513 124.353C20.995 125.85 18.7724 125.85 17.969 125.957C16.5766 126.171 16.7104 127.267 16.8176 128.443C16.9515 129.993 17.0318 131.544 17.246 133.094C17.7012 136.382 18.451 139.643 18.8259 142.931C19.1473 145.791 19.3079 148.545 17.2728 150.817C16.4427 151.726 15.318 152.795 14.0058 152.902C12.6937 153.009 12.7205 152.1 11.8904 151.432C11.3816 151.031 10.7389 150.924 10.1498 150.71C9.42677 150.443 8.73053 150.042 8.08785 149.641C6.90961 148.892 5.86526 147.93 5.00836 146.807C1.82175 142.423 0.670282 135.794 0.322165 130.421C0.107939 126.999 0.322165 123.578 0.643504 120.183C0.804173 118.339 0.991621 116.521 1.20585 114.703C1.28618 114.142 1.39329 113.58 1.42007 112.992C1.44685 112.672 1.28618 112.003 1.44685 111.709C1.23262 112.11 0.857729 111.816 0.482834 111.495C-0.293735 110.854 -0.0527306 109.597 0.348943 108.769C1.58074 106.203 5.30292 106.096 7.73974 105.909C14.2468 105.374 20.4326 103.636 26.672 101.765C25.7883 100.455 27.1807 99.5733 28.2519 99.1189C29.9121 98.4239 31.6259 97.8091 33.2862 97.1408C37.0619 95.6439 40.7573 94.2271 44.6937 93.2648C48.282 92.4094 51.7364 90.9659 55.2711 89.8967C58.913 88.8007 62.5012 87.5443 66.0895 86.288C73.1858 83.7753 80.3088 81.1823 87.1908 78.135C88.9314 77.3598 90.5916 76.4777 92.2786 75.5688C93.6443 74.8471 95.251 74.3125 96.4025 73.2699C97.5004 72.2809 98.1698 70.8642 99.3749 69.9553C100.446 69.1266 101.946 69.1266 102.829 68.1109C104.034 66.7476 105.48 66.1327 107.141 65.3308C107.676 65.0635 111.157 63.7537 111.077 63.0319C108.587 63.0319 106.043 63.7804 103.579 64.1279C100.982 64.5022 98.3841 64.9031 95.7598 65.0902C91.5021 65.411 87.2711 65.3308 83.0401 64.8764C82.3975 64.7962 79.8803 64.2883 79.4251 64.9566C79.1037 65.4645 79.9071 66.0793 79.9339 66.6406C79.9339 67.4426 79.2912 67.897 78.5414 67.603C77.0954 67.0416 77.3096 64.716 77.4435 63.5398C77.7113 61.2677 78.2736 59.049 78.7824 56.8303C75.7832 58.354 72.9715 60.3054 70.4008 62.4439C68.4192 64.1012 66.5983 66.3466 64.2686 67.5228C62.0192 68.6455 60.6803 67.6832 60.7874 65.1972C60.841 64.0477 61.0552 62.9785 61.4569 61.9092C61.6443 61.4014 62.4209 59.9846 62.046 59.45C59.9841 61.0806 57.9489 62.7112 55.8067 64.2081C54.2803 65.2774 52.0845 66.908 50.1029 66.507C48.3356 66.1328 48.523 64.2081 49.0853 62.8983C49.5673 61.7756 50.4243 60.7598 51.2812 59.9044C52.0042 59.1827 52.995 58.5679 53.3699 57.5788C51.0134 58.648 48.5766 59.4233 46.113 60.1717C44.3456 60.7063 43.1406 62.8983 41.0786 62.5775C39.0435 62.2567 39.8468 59.744 40.677 58.648C41.2393 57.8728 42.0427 57.2046 42.7925 56.6432C43.5422 56.0819 44.6669 55.6007 45.0418 54.6919C42.6586 55.1463 40.2485 55.9215 37.7849 55.7611C36.3389 55.6809 33.9021 55.0394 34.1699 53.088C34.4644 51.1099 37.1155 50.9495 38.5883 50.5753C40.6234 50.0674 42.5514 49.1318 44.5063 48.41C48.4427 46.9666 52.4862 45.7904 56.5297 44.6142L57.815 44.24C62.3673 42.9302 66.9464 41.8075 71.5791 40.7115C73.8552 40.1769 76.1314 39.5888 78.4343 39.1344C80.6569 38.6799 82.9062 38.4394 85.1288 37.9047C83.2811 35.098 85.5305 32.7991 87.9406 31.4625C86.3874 31.1418 84.8343 30.9546 83.3079 30.5804C81.9958 30.2596 80.7372 29.7518 79.4251 29.4844C77.1757 29.0033 74.8996 28.736 72.9715 27.346C69.3297 24.6996 69.0083 20.5028 72.0878 17.3218C75.1941 14.1141 79.7464 12.6171 84.1381 12.4567C89.0385 12.2964 94.6351 13.2319 99.2142 14.9695C101.464 15.8249 103.82 16.8941 105.748 18.3643C107.06 19.3534 109.149 21.2513 110.916 21.2513C108.801 18.7118 106.203 16.0654 105.828 12.6171C105.48 9.35594 106.953 5.8809 109.443 3.74241C114.424 -0.507832 122.645 -0.133597 128.751 0.160445ZM100.339 140.338C99.0268 142.37 97.2326 144 95.5456 145.684C94.9565 146.273 93.7782 146.994 93.7247 147.903C93.6711 148.652 94.5816 149.48 94.9832 150.042C97.0719 153.116 98.8125 156.511 101.383 159.237C104.275 162.311 107.596 162.926 111.693 162.926C116.245 162.926 120.851 163.514 125.403 163.273C129.259 163.06 133.062 161.349 134.963 157.874C133.705 157.232 131.937 157.526 130.598 157.553C128.751 157.58 126.956 157.526 125.136 157.232C123.475 156.938 121.842 156.511 120.289 155.869C119.485 155.548 118.682 155.174 117.959 154.72C117.423 154.372 117.022 153.864 116.486 153.543C114.531 152.34 112.255 156.19 110.166 156.11C108.881 156.056 109.336 154.8 109.872 154.105C110.836 152.822 112.523 152.046 113.782 151.111C112.603 150.015 111.264 151.164 110.14 151.726C108.72 152.447 107.274 153.303 105.695 153.57C105.802 151.539 108.56 150.469 110.086 149.641C110.756 149.266 111.613 148.946 111.773 148.117C111.907 147.502 111.693 146.647 111.613 146.032C111.532 145.257 111.479 145.016 110.649 144.776C109.631 144.508 108.64 144.588 107.623 144.241C104.864 143.332 102.722 141.996 100.339 140.338ZM10.605 108.421C9.93555 108.608 9.23932 108.769 8.56986 108.902C7.20417 109.197 5.86526 109.491 4.49957 109.731C3.83011 109.865 3.05355 109.785 2.8661 110.426C2.75898 110.747 3.02677 111.362 3.08032 111.709C3.16066 112.324 3.16066 112.966 3.16066 113.607C3.24099 119.408 2.00919 125.155 2.54476 130.956C2.99999 135.847 4.04434 142.049 7.6594 145.684C9.21254 147.262 11.1138 148.972 13.0954 150.042C14.6217 150.897 16.764 148.759 17.0853 147.315C17.2996 146.273 16.9247 145.15 16.6837 144.161C16.3623 142.878 16.041 141.568 15.7464 140.285C15.077 137.505 14.4879 134.725 14.3004 131.891C14.2468 130.956 14.2468 130.047 14.3004 129.138C14.3272 128.63 14.5682 127.427 14.2201 126.973C13.7648 126.411 12.7205 126.786 12.1046 126.839C11.4351 126.892 10.7657 126.839 10.0962 126.679C8.51631 126.278 8.24852 125.021 9.96233 124.433C11.1674 124.032 13.3632 124.62 14.3807 123.845C15.559 122.936 13.1757 122.803 12.6134 122.776C11.8636 122.749 9.39999 122.936 9.5071 121.546C9.58743 120.504 11.7297 120.45 12.4795 120.397C14.0862 120.317 16.0945 120.905 16.7908 118.98C17.0586 118.205 15.3983 117.831 14.9966 117.43C13.9791 116.494 13.6577 114.917 13.5506 113.607C13.4703 112.324 14.7289 107.887 12.8008 107.78C12.1849 107.7 11.1941 108.261 10.605 108.421ZM105.186 134.03C104.061 135.366 103.07 136.836 102.026 138.253C104.49 139.616 107.033 140.712 109.577 141.889C110.729 142.423 111.559 142.851 112.684 142.049C113.487 141.461 114.103 140.659 114.879 140.044C116.004 139.189 117.182 138.387 118.361 137.558C114.933 136.302 111.452 135.206 108.024 133.976C106.766 133.468 106.123 132.934 105.186 134.03ZM76.9883 129.753C77.7113 130.501 76.3188 132.559 76.0242 133.254C78.3004 133.067 80.5498 132.72 82.7724 132.265C83.5222 132.105 83.2544 133.041 82.9598 133.335C82.6117 133.709 81.9155 133.816 81.4334 133.949C79.6929 134.431 77.9255 134.671 76.1581 134.939C76.9615 135.928 78.9163 137.505 78.3004 139.002C77.1757 138.039 76.3456 136.73 75.087 135.874C74.7121 136.409 73.9623 138.307 73.159 138.2C71.8736 138.013 73.1857 135.794 73.4535 135.259C72.5698 135.259 69.3029 136.035 68.8477 134.965C68.3924 133.869 71.5523 133.896 72.1146 133.655L72.0075 133.522L71.9004 133.388C71.4719 132.854 71.0435 132.346 70.9899 131.624C71.954 131.971 72.6234 133.495 73.6945 133.522C74.7121 133.549 75.1673 132.025 75.5422 131.303C75.7565 130.849 76.4527 129.218 76.9883 129.753ZM187.154 115.345C189.35 117.189 187.85 120.905 186.19 122.562C184.342 124.433 180.192 126.144 177.862 124.246C176.577 123.204 177.032 121.6 177.353 120.21C177.701 118.659 177.915 117.376 179.201 116.307C181.209 114.703 184.931 113.473 187.154 115.345ZM182.709 116.414C180.566 116.868 178.397 119.007 177.889 121.199C177.219 124.086 180.218 124.3 182.2 123.845C184.69 123.311 187.315 121.493 187.449 118.633C187.556 116.2 184.369 116.066 182.709 116.414ZM27.3146 103.984C24.128 105.16 21.1021 106.791 17.7548 107.512C16.7372 107.726 16.3088 107.967 16.0678 108.902C15.7197 110.239 15.3715 111.576 15.6393 112.966C16.1749 115.853 20.1916 115.505 22.441 115.398C23.5925 115.345 25.7883 115.559 26.8058 114.837C27.5289 114.302 27.2343 113.34 27.1272 112.565C26.6452 109.731 27.1272 106.844 27.3146 103.984ZM201.668 76.4509C200.49 76.6648 198.454 77.6271 200.141 78.83C201.266 79.6319 202.953 79.7389 204.265 79.926C206.863 80.3002 209.621 80.6477 211.843 82.0912C215.994 84.791 215.485 89.8699 214.254 94.04C215.137 94.5746 217.788 91.1263 218.27 90.565C220.279 88.2928 222.287 86.0207 224.322 83.7753C225.179 82.8129 218.083 79.4716 217.44 79.1775C214.066 77.6004 210.906 76.5579 207.131 76.2638C205.336 76.1569 203.435 76.1034 201.668 76.4509ZM187.02 68.0039C186.699 68.8059 187.261 69.1801 187.77 69.7414C190.662 72.869 192.724 77.3063 194.331 81.2091C195.134 83.1604 195.696 85.1118 196.205 87.1434C196.687 89.1482 198.24 89.6828 200.115 90.2442C204.399 91.554 208.925 91.9817 213.236 93.2648C214.387 93.6123 214.628 91.0728 214.682 90.4313C214.896 88.6136 214.709 86.6889 213.745 85.0851C211.924 82.0377 208.282 81.3962 205.015 80.8616C203.167 80.5675 200.704 80.2468 199.231 78.9904C198.481 78.3489 198.401 77.6271 198.963 76.8252C200.007 75.3817 201.855 75.1946 203.515 75.0877C204.319 75.0342 209.3 75.5421 209.46 74.954C206.97 74.1521 204.426 73.6174 201.989 72.6819C200.088 71.9601 198.16 71.2918 196.232 70.5968L194.304 69.9286C192.349 69.2336 190.555 68.4049 188.68 67.5762C187.984 67.2822 187.341 67.1753 187.02 68.0039ZM229.115 81.2091C228.5 82.0377 227.884 82.7327 227.402 83.6683C226.866 84.7643 225.956 85.4593 225.206 86.3949C229.115 87.0899 232.864 87.972 236.64 89.2284C238.568 89.8699 240.577 90.1907 242.558 90.6719C244.218 91.0728 245.986 91.6609 247.726 91.3134C245.772 88.6136 240.55 89.3621 239.157 86.1009C238.22 83.8822 240.523 82.1179 242.397 81.717C245.691 81.0487 249.199 80.9952 252.52 80.7546C252.546 79.4716 240.443 78.83 239.238 78.7231C237.122 78.536 234.9 78.135 232.757 78.0548C230.802 78.0013 230.133 79.8191 229.115 81.2091ZM182.843 71.8799C181.664 73.0026 180.54 74.1521 179.361 75.2748C178.585 76.0232 177.567 76.7984 176.951 77.6806C176.175 78.8033 177.541 79.3379 178.424 79.8725C180.7 81.2091 183.057 82.4654 185.36 83.7485C187.449 84.898 189.591 86.3682 191.894 87.0365C193.125 87.384 194.277 87.9453 195.455 88.4265C194.893 83.3208 191.947 78.6696 189.216 74.3926C188.6 73.4036 187.957 72.4413 187.315 71.479C186.993 70.9978 186.431 69.8216 185.761 69.7147C184.851 69.6345 183.432 71.3186 182.843 71.8799ZM242.344 84.898C243.763 85.6999 245.182 86.1276 246.789 85.5128C247.191 85.3524 247.566 85.192 247.967 85.0049C246.896 83.5347 243.736 84.4435 242.344 84.898ZM124.546 67.0951C122.029 68.2178 119.325 69.3672 117.129 71.078C116.325 71.7195 114.505 73.0294 114.933 74.2323C115.308 75.2748 117.29 76.1302 118.254 76.4509C123.261 78.1083 128.938 76.9054 133.544 79.926C134.802 80.7546 135.204 81.8239 136.115 82.8931C136.945 83.8822 138.016 83.7485 139.141 83.3476C140.613 82.8129 141.979 82.011 143.452 81.4764C144.202 81.2091 145.487 81.022 145.567 80.0062C145.942 75.1946 144.898 69.0464 140.667 66.106C135.927 62.8181 129.34 64.9566 124.546 67.0951ZM121.842 78.3221C121.708 78.9369 126.448 80.0329 126.956 80.1666C129.822 80.9418 132.473 82.8129 135.445 83.1337C135.954 81.9843 131.857 80.1666 131.214 79.926C128.269 78.8567 124.948 78.6696 121.842 78.3221ZM214.762 76.1836C218.351 77.6538 221.832 79.4448 224.831 81.9575C225.875 82.8129 228.392 78.7231 228.955 78.1083C224.188 77.8944 219.475 76.9856 214.762 76.1836ZM147.71 47.421C144.389 49.6129 141.497 52.4732 137.828 54.1572C138.98 54.3443 140.212 53.5959 141.31 53.3286C142.381 53.088 143.452 52.9009 144.469 52.5534C145.112 52.3395 147.736 50.9228 148.218 51.8851C148.995 53.382 143.559 54.4245 142.809 54.6651C140.212 55.5205 137.614 56.4294 135.043 57.365C132.553 58.2738 130.063 59.2629 127.465 59.9044C124.841 60.5727 122.083 60.7331 119.566 61.7756C117.343 62.6844 115.415 64.2081 113.273 65.2506C111.131 66.3199 108.667 66.9881 106.819 68.5653C108.828 70.7038 111.211 72.5215 113.835 73.8848C114.264 70.5968 118.093 68.7524 120.744 67.4693C126.474 64.716 135.097 60.5727 140.961 65.2239C145.246 68.6187 145.808 75.0877 145.808 80.1398C146.96 79.7656 148.031 79.1775 149.102 78.6429C149.852 78.2687 149.852 77.1994 149.959 76.4777C150.12 75.3015 150.441 74.1788 150.789 73.0561C151.592 70.5701 152.61 68.1643 153.547 65.7585C155.1 61.8558 157.002 57.9798 157.966 53.8632C158.582 51.1901 159.331 46.5656 156.091 45.229C153.306 44.1331 149.986 45.9241 147.71 47.421ZM133.196 36.488C132.66 36.8622 132.848 37.9315 132.901 38.4928C133.035 40.4709 132.955 42.4757 133.008 44.4538C133.089 46.8864 133.115 51.3237 135.606 52.687C137.32 53.6226 139.435 52.2326 140.828 51.2703C143.131 49.6664 145.273 47.7952 147.602 46.2448C150.387 44.4004 155.636 41.8075 158.314 45.3092C159.76 47.2071 159.546 50.0139 159.197 52.2059C158.715 55.1195 157.618 57.8461 156.52 60.5727C154.243 66.1595 151.887 71.8532 150.602 77.7875C153.494 76.0767 155.716 73.6174 158.233 71.4522C160.108 69.8484 162.866 68.0039 163.295 65.3843C163.402 64.7962 163.964 64.3685 164.366 63.9675C164.874 63.4596 165.249 62.925 165.571 62.2835C166.294 60.84 166.749 59.2629 167.043 57.6857C167.659 54.3711 167.365 51.0564 166.802 47.7418C166.535 46.2448 166.91 44.641 166.561 43.1975C166.32 42.1817 165.597 42.2352 164.66 42.0213C161.233 41.1927 157.805 40.3907 154.377 39.5621C152.985 39.2413 151.459 38.5997 150.013 38.6265C148.834 38.6532 147.817 39.3482 146.799 39.8561C145.112 40.6848 142.434 42.155 140.506 41.3263C138.257 40.364 140.881 38.1453 139.756 37.1028C138.98 36.3811 136.677 36.8088 135.633 36.6484C135.043 36.5682 133.731 36.1405 133.196 36.488ZM168.597 65.1972C166.963 65.4645 166.026 66.1595 165.115 67.5495C164.205 68.9662 164.098 69.6613 165.383 70.7572C166.802 71.9601 168.275 73.1363 169.748 74.2055C171.649 75.5688 173.738 76.5846 175.613 78.0013C176.443 78.6162 180.165 73.8313 180.808 73.163C181.691 72.2542 182.602 71.3453 183.566 70.5166C183.914 70.2226 185.012 69.5009 185.012 68.993C185.012 67.6832 182.093 66.507 181.156 66.1595C179.067 65.3575 176.871 65.0368 174.622 64.9833C172.694 64.9566 170.551 64.8764 168.597 65.1972ZM175.88 59.45C174.354 60.2519 172.747 60.9469 171.194 61.7489C170.659 62.0429 167.177 63.4864 167.365 64.3418C171.248 64.1012 175.131 63.4329 179.013 64.1814C180.754 64.5289 182.414 65.0902 183.86 66.1327C184.958 66.9347 185.815 68.4316 186.886 67.0951C184.664 65.8387 182.628 64.1546 180.647 62.5241C179.79 61.8023 178.879 61.134 177.996 60.439C177.514 60.0381 176.657 59.0223 175.88 59.45ZM83.8435 40.4976C82.6385 40.658 81.4335 40.9788 80.2552 41.2728C75.4083 42.3956 70.5615 43.4113 65.7146 44.5875C56.0745 46.9398 46.1665 49.2387 36.9548 53.0078C37.7314 53.8632 39.7665 53.2484 40.7305 53.088C42.605 52.7672 44.4259 52.1791 46.2736 51.7514C48.0945 51.3237 49.9155 50.8158 51.7364 50.4683C52.5665 50.308 54.0661 50.0941 54.0929 51.3505C54.1464 53.1414 50.6653 54.478 49.3799 55.1195C48.0142 55.8146 46.7021 56.5898 45.3899 57.3917C44.3724 58.0332 42.4711 58.8886 42.123 60.1717C45.4435 58.755 48.7908 57.365 52.1113 55.8947C53.3699 55.3334 54.6284 54.8255 55.8067 54.1572C56.61 53.7028 57.6276 52.9276 58.5648 52.8474C59.8234 52.7405 60.0376 53.8899 59.5021 54.8255C58.8326 55.9749 57.4401 56.6432 56.4226 57.4451C55.1372 58.4877 53.9858 59.7173 52.8075 60.8935C51.8435 61.8558 50.5849 62.8181 50.0761 64.1547C51.8167 64.7427 53.7983 62.8716 55.0837 61.9627C57.092 60.5192 58.9665 58.9421 60.8945 57.365C61.8853 56.563 63.0368 55.2799 64.3489 55.0394C65.9824 54.7453 65.8485 56.6165 65.4468 57.6323C64.5632 59.9311 62.4745 61.8558 62.3406 64.4487C62.2602 66.0526 63.5991 65.4377 64.5096 64.7962C66.036 63.727 67.0535 62.0696 68.446 60.84C71.7665 57.8728 75.5958 55.3067 79.6929 53.5424C80.4427 53.2216 80.6837 52.0989 80.9247 51.4039C81.246 50.3881 81.6477 49.3991 82.0493 48.41C82.933 46.2448 83.656 43.8658 84.8878 41.8609C85.236 41.2996 86.1196 40.7382 85.3966 40.3907C85.0217 40.2571 84.2452 40.4442 83.8435 40.4976ZM118.977 36.8355C117.718 36.9691 116.459 36.9691 115.228 37.1028C113.192 37.3166 114.076 39.8026 113.755 41.2728C112.791 45.6567 108.131 46.4854 104.597 44.4271C102.615 43.2509 101.41 41.5936 100.339 39.6423C99.723 38.5195 99.2678 38.3592 98.0092 38.6265C97.1523 38.8136 96.3489 38.7869 95.4652 38.8403C94.3673 38.9205 94.2602 39.1611 94.2334 40.2036C94.2067 41.1392 94.0728 41.7807 93.4569 42.5292C92.2786 43.9727 90.2703 44.9083 88.5832 45.6567C86.8962 46.3785 84.9682 46.9131 84.0309 48.6506C83.5489 49.506 83.0669 50.5485 82.933 51.5376C82.7724 52.6068 83.1473 53.2751 82.5314 54.2642C81.2192 56.3224 80.6301 58.5679 79.9606 60.9202C79.7464 61.6954 79.6661 61.9894 80.4962 62.2033C81.7012 62.4973 83.3883 62.0429 84.6201 61.9894C85.5037 61.9627 86.0125 60.4123 86.2803 59.7975C86.8427 58.5946 87.5121 57.4452 88.1816 56.269C89.7347 53.6761 91.3682 51.0832 93.3765 48.811C94.9029 47.1002 97.1255 44.9617 99.0803 47.3675C100.982 49.7199 102.347 52.4732 104.623 54.5315C106.632 56.3224 108.694 56.3759 110.782 54.6651C112.818 52.9811 114.397 50.6822 115.656 48.3833C117.022 45.8973 118.066 43.2509 119.405 40.765C119.833 39.9898 121.761 37.878 121.172 36.9691C120.797 36.3276 119.539 36.7553 118.977 36.8355ZM129.42 36.2741C128.322 36.3276 127.224 36.1939 126.126 36.1939C124.145 36.1672 122.484 36.2207 121.494 38.1186C120.61 39.8026 119.86 41.5669 119.057 43.3044C117.316 47.0468 115.602 50.8426 112.925 54.0236C110.541 56.8303 107.489 58.2471 104.382 55.574C103.017 54.3711 101.972 52.8474 100.982 51.3237C100.205 50.1208 99.2945 47.9823 97.9824 47.2873C96.5096 46.5121 94.8226 48.3031 93.9389 49.2922C92.4393 50.9495 91.1539 52.8741 89.9489 54.7453C89.0652 56.1086 88.2351 57.4986 87.3782 58.8619C87.0301 59.4232 85.6109 61.241 86.0929 61.936C86.5749 62.631 88.8778 62.1498 89.5205 62.0964C91.1004 61.936 92.7071 61.8825 94.287 61.7489C99.241 61.3212 104.115 60.2252 109.069 59.9579C112.336 59.7708 115.549 59.1292 118.762 58.5679C121.895 58.0065 125.028 57.6323 128.135 56.8838C129.956 56.4561 131.777 56.0284 133.597 55.574C134.213 55.4136 137.186 54.9859 137.373 54.184C135.338 53.8365 134.267 53.0345 133.517 51.0564C132.607 48.5704 132.5 45.7904 132.419 43.144C132.392 42.1282 132.392 41.1125 132.392 40.0967V38.8938C132.392 38.172 132.714 36.8622 132.044 36.3543C131.455 35.8464 130.116 36.2474 129.42 36.2741ZM170.016 52.393C170.096 55.6809 169.507 58.9956 168.168 61.9894C169.587 62.2033 171.274 60.439 172.453 59.8509C172.908 59.6104 175.934 58.5144 174.916 57.6857C173.069 56.1353 171.837 53.9968 170.016 52.393ZM210.612 55.0661C211.013 55.8947 210.505 56.9105 210.237 57.6857C212.406 58.1936 214.548 58.7015 216.717 59.1559C218.351 59.4767 217.788 60.4658 216.369 60.4123C214.387 60.3054 212.54 59.4767 210.585 59.3698C208.71 59.2629 208.496 60.8935 206.889 61.2142C206.943 60.3054 207.666 59.6906 208.202 59.0223C207.345 58.5679 206.461 58.1669 205.631 57.6857C205.202 57.4452 203.997 56.3759 204.453 55.8146C204.908 55.2532 206.14 56.3224 206.568 56.5363C207.184 56.8571 208.416 57.6055 209.139 57.3917C210.13 57.0976 209.915 55.6809 210.612 55.0661ZM179.495 33.6545C178.612 33.7079 177.674 33.4139 176.844 33.8149C176.014 34.1891 175.023 35.0445 174.327 35.6326C173.658 36.1939 173.336 36.8889 172.479 37.2097C171.649 37.5305 170.792 37.5038 170.471 38.5195C171.221 38.7334 172.72 38.4394 173.31 39.0007C174.167 39.8026 172.667 40.6848 172.051 40.9521C171.167 41.3263 170.418 41.1927 169.507 41.1392C169.105 41.1125 169.105 40.9788 168.784 41.1927C167.579 41.9144 168.409 44.5073 168.811 45.4429C170.712 50.0674 177.273 48.517 181.048 48.0358C179.843 46.8329 177.889 45.4964 177.782 43.5985C177.755 43.0371 177.889 42.0213 178.612 41.9679C179.201 41.9411 179.897 42.7965 180.245 43.144C181.316 44.1598 182.709 45.8706 184.262 46.0042C186.324 46.1914 187.931 42.85 188.787 41.3798C187.743 41.1927 186.565 41.1927 185.949 40.1501C185.226 38.9205 185.199 37.0493 185.226 35.6593C185.226 34.4832 185.601 33.2001 184.048 33.1466C182.575 33.0931 180.968 33.5476 179.495 33.6545ZM40.3556 36.6751C40.0611 37.3434 38.7489 37.584 38.1598 37.7711C35.964 38.4394 33.8217 39.2947 31.7063 40.1234C27.395 41.8075 23.1372 43.6519 19.2008 46.1379C18.4778 46.5923 18.8259 45.7102 19.0134 45.3894C19.4418 44.6677 20.3523 44.1598 21.0217 43.7321C22.8427 42.5292 24.7707 41.7005 26.7791 40.8986C30.7958 39.2947 34.8929 37.6107 39.0167 36.3009C39.472 36.1405 40.7573 35.793 40.3556 36.6751ZM90.3774 39.9363C89.574 40.0165 88.6368 39.8294 87.8602 40.0967C86.8694 40.4442 87.0301 41.1125 86.7355 41.9679C86.2268 43.4113 85.6912 44.8281 85.1556 46.2448C87.1104 46.1646 88.9581 44.6142 90.6184 43.7321C91.5556 43.2242 94.7958 41.5669 93.805 40.0432C93.1891 39.0809 91.2611 39.8294 90.3774 39.9363ZM112.496 37.4236C111.291 37.3968 109.979 37.7711 108.747 37.8245C107.114 37.9047 105.507 38.2255 103.874 38.279C102.802 38.3324 101.758 38.5463 100.687 38.6799C101.731 41.1125 103.82 43.2509 106.391 44.1598C108.426 44.8548 111.291 44.9885 112.684 43.0371C113.514 41.9411 114.826 37.477 112.496 37.4236ZM175.211 27.3192C173.899 28.2013 172.854 29.431 171.756 30.5537C168.998 33.3337 166.16 36.3276 164.982 40.1501C164.821 40.6848 166.053 41.1392 166.401 41.1659C167.097 41.2194 167.258 40.8452 167.525 40.2571C168.222 38.7869 168.49 37.1295 169.587 35.8732C170.926 34.3228 172.533 32.8258 174.113 31.516C175.184 30.6071 177.755 29.3508 178.076 27.8806C178.397 26.0896 176.014 26.8113 175.211 27.3192ZM141.336 37.477C140.587 37.6909 140.533 38.3859 140.372 39.1076C139.703 42.0748 146.585 38.8403 147.549 38.3592C147.228 37.3968 144.095 37.584 143.345 37.5305C142.782 37.5305 141.899 37.3166 141.336 37.477ZM182.12 39.0274C181.102 39.0542 181.557 34.8841 182.736 35.3118C183.726 35.6861 182.789 39.0007 182.12 39.0274ZM38.2937 34.2426C36.7406 35.5791 34.277 35.7662 32.3222 36.1939C29.4569 36.8355 26.6184 37.6374 23.7531 38.3859C21.959 38.8403 22.9766 37.7443 23.8602 37.3166C25.4134 36.5949 27.154 36.2207 28.8142 35.8197C30.6084 35.392 32.4293 35.098 34.2234 34.6435C35.4552 34.3495 37.0619 33.5208 38.2937 34.2426ZM87.0301 5.21262C88.7707 5.53339 90.5113 6.09474 92.0376 7.0036C93.2962 7.75207 93.2427 8.92824 91.636 8.25996C84.1648 5.07896 74.8996 7.0036 67.5891 9.81036C66.7858 10.1311 66.8393 9.43613 67.0803 8.92824C67.4284 8.2065 68.1247 7.80553 68.8209 7.45803C70.8828 6.46898 73.2661 5.8809 75.5155 5.47993C79.2644 4.78492 83.2811 4.54434 87.0301 5.21262ZM88.128 0.668335C89.0652 0.935646 90.1632 1.55046 90.7523 2.37912C91.4217 3.31471 90.8862 3.8226 89.9489 3.26125C88.9046 2.64644 87.9406 2.03162 86.7355 1.68412C86.0929 1.52373 86.1196 1.12276 86.5749 0.748528C87.0033 0.427755 87.646 0.53468 88.128 0.668335Z" fill="#3D3D3D"/>
</g>
<defs>
<clipPath id="clip0">
<rect width="256" height="166" fill="white"/>
</clipPath>
</defs>
</svg>
