<svg width="250" height="120" viewBox="0 0 254 163" fill="none" xmlns="http://www.w3.org/2000/svg">
<path d="M101.666 60.7408L72.7568 40.385L56.0241 64.1986L84.9336 84.5545L101.666 60.7408Z" fill="white" stroke="#333333" stroke-miterlimit="10"/>
<path d="M59.0425 59.8034L68.9489 59.0894L72.6737 68.6095L95.2603 69.8788" stroke="#333333" stroke-miterlimit="10"/>
<path d="M77.825 58.2961C79.926 58.2961 81.6291 56.5911 81.6291 54.488C81.6291 52.3849 79.926 50.68 77.825 50.68C75.7241 50.68 74.021 52.3849 74.021 54.488C74.021 56.5911 75.7241 58.2961 77.825 58.2961Z" fill="white" stroke="#333333" stroke-miterlimit="10"/>
<path d="M196.704 97.6569L204.962 102.842L222.06 75.5576L213.803 70.3722L196.704 97.6569Z" fill="white" stroke="#333333" stroke-miterlimit="10"/>
<path d="M223.805 63.6115L215.801 67.8162L223.488 72.5762L223.805 63.6115Z" fill="white" stroke="#333333" stroke-miterlimit="10"/>
<path d="M107.623 18.2324L124.504 78.3676C126.643 86.1423 122.126 94.2344 114.359 96.3764C106.593 98.5184 98.5092 93.9964 96.3694 86.2216L79.4889 26.0865C77.3492 18.3118 81.8665 10.2197 89.6331 8.07767C97.3205 5.85631 105.483 10.4577 107.623 18.2324Z" fill="#FF6666"/>
<path d="M78.855 111.609C92.4234 111.609 103.423 100.598 103.423 87.015C103.423 73.4324 92.4234 62.4214 78.855 62.4214C65.2865 62.4214 54.2871 73.4324 54.2871 87.015C54.2871 100.598 65.2865 111.609 78.855 111.609Z" fill="#5C74FF"/>
<path d="M148.913 34.9719L123.315 49.728V79.2403L148.913 93.9964L174.432 79.2403V49.728L148.913 34.9719Z" fill="#FFC44D"/>
<path d="M211.68 55.1227L148.913 78.7643L200.743 121.367L211.68 55.1227Z" fill="#5C74FF"/>
<path d="M152.242 88.205H54.2871V161.43H152.242V88.205Z" fill="white" stroke="#333333" stroke-miterlimit="10"/>
<path d="M214.85 88.205H152.321V161.43H214.85V88.205Z" fill="white" stroke="#333333" stroke-miterlimit="10"/>
<path d="M161.758 75.8609L128.517 46.6659L99.3521 79.9424L132.594 109.137L161.758 75.8609Z" fill="white" stroke="#333333" stroke-miterlimit="10"/>
<path d="M101.677 79.7762L99.2344 77.631L97.0915 80.0761L99.534 82.2212L101.677 79.7762Z" fill="white" stroke="#333333" stroke-miterlimit="10"/>
<path d="M130.818 46.4356L128.376 44.2905L126.233 46.7355L128.676 48.8807L130.818 46.4356Z" fill="white" stroke="#333333" stroke-miterlimit="10"/>
<path d="M164.072 75.6676L161.629 73.5225L159.486 75.9675L161.929 78.1126L164.072 75.6676Z" fill="white" stroke="#333333" stroke-miterlimit="10"/>
<path d="M134.923 108.896L132.48 106.751L130.338 109.196L132.78 111.341L134.923 108.896Z" fill="white" stroke="#333333" stroke-miterlimit="10"/>
<path d="M129.813 62.2628L146.139 76.6222" stroke="#333333" stroke-miterlimit="10"/>
<path d="M137.976 69.3235L122.364 87.1736" stroke="#333333" stroke-miterlimit="10"/>
<path d="M135.044 115.972H37.0894L54.2869 88.205H152.321L135.044 115.972Z" fill="white" stroke="#333333" stroke-miterlimit="10"/>
<path d="M169.518 115.972H232.127L214.85 88.205H152.321L169.518 115.972Z" fill="white" stroke="#333333" stroke-miterlimit="10"/>
<path d="M162.624 40.7633C160.008 41.9533 158.027 44.254 157.234 46.9513C154.698 45.7613 151.687 45.682 148.992 46.872C144.317 48.9347 142.256 54.1707 144.317 58.7721C146.853 64.4048 153.985 66.6262 164.922 70.1962L168.013 71.1482L169.36 68.2128C174.036 57.7408 177.206 50.918 174.67 45.2853C172.609 40.6046 167.379 38.7006 162.624 40.7633Z" fill="#FF6666"/>
<path d="M98.8262 43.54L102.472 57.6614" stroke="#333333" stroke-miterlimit="10"/>
<path d="M94.7051 27.4352L96.6071 34.8132" stroke="#333333" stroke-miterlimit="10"/>
<path d="M67.4429 82.4136H89.1577" stroke="#333333" stroke-miterlimit="10"/>
<path d="M74.417 76.6223H81.0741" stroke="#333333" stroke-miterlimit="10"/>
<path d="M173.56 88.205L195.671 80.7476" stroke="#333333" stroke-miterlimit="10"/>
<path d="M144.72 12.7415L136.673 -6.10352e-05L123.945 8.05519L131.992 20.7968L144.72 12.7415Z" fill="#FFC44D"/>
<path d="M191.867 33.3852L202.407 44.6506L191.233 55.202" fill="#5C74FF"/>
<path d="M166.031 31.1639C168.876 31.1639 171.183 28.8551 171.183 26.0072C171.183 23.1592 168.876 20.8505 166.031 20.8505C163.186 20.8505 160.88 23.1592 160.88 26.0072C160.88 28.8551 163.186 31.1639 166.031 31.1639Z" fill="white" stroke="#333333" stroke-miterlimit="10"/>
<path d="M60.5481 161.51H31.7007V146.357" fill="#5C74FF"/>
<path d="M231.572 161.51H215.008V152.783" fill="#5C74FF"/>
<path d="M22.1902 151.91L16.6426 161.51H27.6585L22.1902 151.91Z" fill="#5C74FF"/>
<path d="M167.141 131.601H200.902" stroke="#333333" stroke-miterlimit="10"/>
<path d="M67.7598 131.601H116.024" stroke="#333333" stroke-miterlimit="10"/>
<path d="M167.141 143.183H184.814" stroke="#333333" stroke-miterlimit="10"/>
<path d="M193.214 143.183H200.902" stroke="#333333" stroke-miterlimit="10"/>
<path d="M122.126 131.601H136.153" stroke="#333333" stroke-miterlimit="10"/>
<path d="M67.7598 143.897H93.6749" stroke="#333333" stroke-miterlimit="10"/>
<path d="M100.808 143.897H136.154" stroke="#333333" stroke-miterlimit="10"/>
<path d="M214.453 147.309L216.831 152.148L222.22 152.862L218.337 156.67L219.209 161.986L214.453 159.447L209.698 161.986L210.649 156.67L206.766 152.862L212.076 152.148L214.453 147.309Z" fill="#FF6666"/>
<path d="M9.51025 161.51H241.161" stroke="#333333" stroke-miterlimit="10"/>
<path d="M246.471 161.51H254" stroke="#333333" stroke-miterlimit="10"/>
<path d="M0 161.51H6.8156" stroke="#333333" stroke-miterlimit="10"/>
</svg>
