<svg width="250" height="120" viewBox="0 0 302 145" fill="none" xmlns="http://www.w3.org/2000/svg">
<path d="M183.27 90.8618C180.264 93.5581 24.3461 94.6303 21.8581 90.8618C19.3702 87.0933 18.8674 11.0511 21.8581 6.26239C24.8489 1.47365 180.466 2.25442 183.27 6.26239C186.074 10.2704 186.276 88.1707 183.27 90.8618Z" fill="#EFEFEF"/>
<path d="M28.3525 17.5992C45.4262 17.6895 62.4981 17.7467 79.5683 17.771C102.703 17.771 125.839 17.7571 148.977 17.7294C156.529 17.7294 164.087 17.7606 171.633 17.5888C171.763 17.5888 171.887 17.5373 171.978 17.4455C172.069 17.3538 172.121 17.2293 172.121 17.0995C172.121 16.9698 172.069 16.8453 171.978 16.7536C171.887 16.6618 171.763 16.6103 171.633 16.6103C154.57 16.2251 137.481 16.4281 120.418 16.4073C97.2657 16.376 74.1293 16.4021 51.0085 16.4853L28.3473 16.5999C28.2397 16.6314 28.1451 16.6971 28.0778 16.7872C28.0105 16.8773 27.9741 16.9869 27.9741 17.0995C27.9741 17.2122 28.0105 17.3218 28.0778 17.4119C28.1451 17.502 28.2397 17.5677 28.3473 17.5992H28.3525Z" fill="white" fill-opacity="0.5"/>
<path d="M33.8783 13.4976C35.0491 13.4976 35.9982 12.5444 35.9982 11.3687C35.9982 10.1929 35.0491 9.23975 33.8783 9.23975C32.7074 9.23975 31.7583 10.1929 31.7583 11.3687C31.7583 12.5444 32.7074 13.4976 33.8783 13.4976Z" fill="white" fill-opacity="0.5"/>
<path d="M41.8866 13.4976C43.0574 13.4976 44.0065 12.5444 44.0065 11.3687C44.0065 10.1929 43.0574 9.23975 41.8866 9.23975C40.7157 9.23975 39.7666 10.1929 39.7666 11.3687C39.7666 12.5444 40.7157 13.4976 41.8866 13.4976Z" fill="white" fill-opacity="0.5"/>
<path d="M49.7186 13.4976C50.8894 13.4976 51.8385 12.5444 51.8385 11.3687C51.8385 10.1929 50.8894 9.23975 49.7186 9.23975C48.5478 9.23975 47.5986 10.1929 47.5986 11.3687C47.5986 12.5444 48.5478 13.4976 49.7186 13.4976Z" fill="white" fill-opacity="0.5"/>
<path d="M275.517 127.366C272.568 129.921 119.429 130.936 116.987 127.366C114.546 123.795 114.048 51.7035 116.987 47.1698C119.926 42.6361 272.76 43.37 275.517 47.1698C278.275 50.9695 278.472 124.815 275.517 127.366Z" fill="#EFEFEF" fill-opacity="0.5" stroke="white" stroke-opacity="0.5" stroke-width="6" stroke-miterlimit="10"/>
<path d="M123.377 57.9392C140.137 58.026 156.896 58.085 173.655 58.1162C196.375 58.1162 219.092 58.1006 241.805 58.0694C249.237 58.0694 256.675 58.1006 264.093 57.9288C264.22 57.912 264.336 57.845 264.415 57.7426C264.494 57.6402 264.529 57.5106 264.512 57.3823C264.499 57.2701 264.448 57.166 264.366 57.0881C264.285 57.0101 264.179 56.9632 264.067 56.9555C247.32 56.5651 230.541 56.7733 213.789 56.7473C191.073 56.716 168.354 56.7421 145.634 56.8253L123.346 56.9451C123.241 56.9807 123.151 57.0491 123.087 57.1403C123.024 57.2314 122.991 57.3406 122.994 57.4517C122.997 57.5629 123.035 57.6702 123.103 57.7579C123.171 57.8456 123.266 57.9092 123.372 57.9392H123.377Z" fill="white" fill-opacity="0.5"/>
<path d="M128.794 54.0249C129.944 54.0249 130.877 53.1207 130.877 52.0053C130.877 50.8899 129.944 49.9857 128.794 49.9857C127.643 49.9857 126.71 50.8899 126.71 52.0053C126.71 53.1207 127.643 54.0249 128.794 54.0249Z" fill="white" fill-opacity="0.5"/>
<path d="M136.657 54.0249C137.808 54.0249 138.741 53.1207 138.741 52.0053C138.741 50.8899 137.808 49.9857 136.657 49.9857C135.507 49.9857 134.574 50.8899 134.574 52.0053C134.574 53.1207 135.507 54.0249 136.657 54.0249Z" fill="white" fill-opacity="0.5"/>
<path d="M144.348 54.0249C145.499 54.0249 146.432 53.1207 146.432 52.0053C146.432 50.8899 145.499 49.9857 144.348 49.9857C143.198 49.9857 142.265 50.8899 142.265 52.0053C142.265 53.1207 143.198 54.0249 144.348 54.0249Z" fill="white" fill-opacity="0.5"/>
<path d="M175.688 34.8647C175.688 34.8647 176.429 45.7643 176.496 46.5919C176.563 47.4195 176.963 57.1115 182.26 59.178C185.395 60.4117 188.742 61.0096 192.108 60.9373L192.943 63.2796C192.35 63.5503 191.822 63.9439 191.392 64.4347C190.962 64.9255 190.641 65.5023 190.449 66.1269C189.859 68.2089 187.241 74.2781 191.657 73.4713C196.073 72.6645 203.745 68.0996 203.745 68.0996L208.347 64.8724C208.347 64.8724 208.218 60.5313 207.948 58.6262C207.679 56.7212 207.114 49.9076 207.124 49.6734C207.134 49.4391 207.751 43.6406 207.751 43.6406C207.751 43.6406 210.213 40.2885 209.98 38.6645C209.747 37.0405 208.508 35.0677 208.373 34.1412C208.238 33.2147 191.621 25.5162 191.113 25.3445C190.605 25.1727 175.827 28.0355 175.827 28.0355L175.688 34.8647Z" fill="white"/>
<path d="M200.297 36.2232C198.944 33.4333 197.545 32.2517 197.239 30.4976C196.933 28.7434 204.402 30.2061 205.46 30.2581C206.517 30.3102 202.567 40.3457 201.064 40.0438C201.064 40.0438 200.608 36.9103 200.297 36.2232Z" fill="#333333"/>
<path d="M175.827 41.1629C175.827 41.1629 171.773 40.0751 170.535 32.5796C169.296 25.0842 172.608 20.233 175.2 17.4222C180.476 11.8059 190.822 10.2756 196.29 13.0395C197.845 13.8359 198.519 14.4293 199.525 14.601C200.769 14.8197 201.489 13.8307 203.308 14.5542C211.498 17.823 212.12 28.5352 211.477 30.763C210.353 34.7138 208.886 35.3332 208.886 35.3332C208.886 35.3332 208.585 32.8503 204.371 33.1574C202.883 33.2615 203.386 33.6051 202.194 33.7612C201.002 33.9174 202.194 35.0261 200.468 35.6507C199.348 36.0619 194.932 31.8926 194.378 32.0695C193.823 32.2465 193.787 34.6721 192.102 33.1522C191.247 32.3923 194.253 34.9532 192.102 34.9532C190.812 34.9532 189.594 33.9798 188.992 34.1048C188.557 34.1932 188.946 35.8797 188.51 35.9057C187.194 35.9786 184.923 34.6929 184.436 34.4119C182.56 33.3136 182.736 32.9284 182.223 33.1522C180.668 33.8133 181.425 35.2915 179.709 35.1718C175.267 34.8699 177.739 34.1932 177.081 36.2128C176.278 38.7842 177.962 41.4857 175.827 41.1629Z" fill="#333333"/>
<path d="M181.13 31.0441C181.46 30.9087 181.827 30.8917 182.169 30.9959C182.511 31.1002 182.806 31.3194 183.006 31.6167C183.96 33.0273 185.432 35.4113 184.561 35.3904C183.312 35.3904 180.228 32.564 179.756 32.0852C179.481 31.8197 180.337 31.372 181.13 31.0441Z" fill="#333333"/>
<path d="M174.174 139.634L161.091 91.0387C164.299 86.2847 167.749 81.6999 171.427 77.3023C181.348 65.7209 191.403 63.7689 191.403 63.7689C191.403 63.7689 187.137 73.0914 191.698 73.4661C198.711 74.0439 208.389 63.5035 208.389 63.5035C217.718 66.3819 224.327 75.4753 228.603 94.8073C231.667 108.648 234.6 122.749 233.994 131.649C233.61 137.313 228.862 139.613 223.202 139.629H174.174" fill="#FF842C"/>
<path d="M65.8433 84.4646C65.8433 86.8382 85.1043 143.928 85.1043 143.928L175.848 143.975C175.848 143.975 162.584 85.11 159.66 83.1529C158.401 82.3149 122.128 83.1529 95.0095 83.3039C80.5948 83.3923 65.8433 81.2686 65.8433 84.4646Z" fill="#333333"/>
<path d="M171.913 139.421L228.52 139.707V143.2L174.183 143.944L171.913 139.421Z" fill="#333333"/>
<g opacity="0.39">
<g opacity="0.39">
<path opacity="0.39" d="M183.141 68.8128C193.44 69.0574 204.024 69.6039 214.308 68.8128C214.437 68.8128 214.561 68.7612 214.652 68.6695C214.744 68.5777 214.795 68.4532 214.795 68.3235C214.795 68.1937 214.744 68.0693 214.652 67.9775C214.561 67.8858 214.437 67.8342 214.308 67.8342C204.029 67.0378 193.445 67.5792 183.141 67.8342C183.075 67.8533 183.014 67.8852 182.961 67.928C182.908 67.9708 182.864 68.0237 182.831 68.0836C182.799 68.1436 182.778 68.2094 182.771 68.2773C182.763 68.3453 182.769 68.414 182.788 68.4796C182.813 68.5636 182.858 68.6401 182.919 68.702C182.981 68.7638 183.057 68.8091 183.141 68.8336V68.8128Z" fill="white"/>
<path opacity="0.39" d="M171.931 79.0773C179.54 79.2022 187.144 79.2491 194.737 79.2647C202.331 79.2803 210.007 79.6082 217.544 79.0669C217.669 79.0537 217.785 78.9921 217.866 78.895C217.947 78.7979 217.988 78.6729 217.979 78.5464C217.962 78.4364 217.911 78.3345 217.833 78.2558C217.755 78.1771 217.653 78.1257 217.544 78.1092C209.986 77.5887 202.284 77.901 194.737 77.9114C187.19 77.9218 179.524 77.9738 171.931 78.0988C171.826 78.1344 171.735 78.2028 171.672 78.294C171.609 78.3852 171.576 78.4943 171.579 78.6054C171.582 78.7166 171.62 78.8239 171.688 78.9116C171.756 78.9993 171.85 79.0629 171.957 79.0929L171.931 79.0773Z" fill="white"/>
<path opacity="0.39" d="M166.887 89.3419C176.562 89.4669 186.238 89.5293 195.913 89.5293C205.559 89.5293 215.314 89.8729 224.939 89.3315C225.059 89.3162 225.169 89.2567 225.248 89.1646C225.326 89.0725 225.368 88.9543 225.365 88.8331C225.362 88.7118 225.314 88.596 225.23 88.5082C225.147 88.4205 225.034 88.367 224.913 88.3581C215.278 87.8376 205.518 88.1499 195.887 88.1603C186.257 88.1708 176.533 88.2228 166.861 88.3477C166.731 88.3896 166.622 88.4815 166.559 88.6034C166.496 88.7252 166.483 88.8672 166.524 88.9984C166.548 89.0787 166.592 89.1519 166.65 89.2117C166.709 89.2715 166.781 89.3162 166.861 89.3419H166.887Z" fill="white"/>
<path opacity="0.39" d="M147.854 99.6117C169.655 99.8129 191.455 99.8563 213.256 99.7418C217.512 99.7418 221.772 99.773 226.017 99.5961C226.143 99.5829 226.259 99.5212 226.34 99.4241C226.421 99.327 226.462 99.2021 226.453 99.0755C226.435 98.9649 226.382 98.8631 226.301 98.7853C226.221 98.7075 226.118 98.6577 226.007 98.6435C216.677 98.2531 207.244 98.4509 197.883 98.4353C185.443 98.4353 173.029 98.3937 160.605 98.5134L147.843 98.6331C147.711 98.6718 147.6 98.7615 147.534 98.8825C147.468 99.0036 147.452 99.146 147.491 99.2785C147.519 99.3599 147.567 99.4329 147.631 99.491C147.694 99.5492 147.771 99.5906 147.854 99.6117Z" fill="white"/>
<path opacity="0.39" d="M147.854 109.876C170.315 110.081 192.776 110.124 215.237 110.006C219.663 110.006 224.105 110.043 228.532 109.866C228.661 109.866 228.785 109.814 228.876 109.722C228.968 109.631 229.019 109.506 229.019 109.377C229.019 109.247 228.968 109.122 228.876 109.031C228.785 108.939 228.661 108.887 228.532 108.887C218.844 108.497 209.1 108.695 199.402 108.684C186.656 108.684 173.9 108.637 161.155 108.757L147.86 108.877C147.752 108.908 147.657 108.974 147.59 109.064C147.523 109.154 147.486 109.264 147.486 109.377C147.486 109.489 147.523 109.599 147.59 109.689C147.657 109.779 147.752 109.845 147.86 109.876H147.854Z" fill="white"/>
<path opacity="0.39" d="M147.854 120.141C170.764 120.349 193.674 120.392 216.584 120.271C221.011 120.271 225.443 120.307 229.864 120.13C229.993 120.13 230.117 120.079 230.208 119.987C230.3 119.895 230.351 119.771 230.351 119.641C230.351 119.511 230.3 119.387 230.208 119.295C230.117 119.203 229.993 119.152 229.864 119.152C220.135 118.767 210.354 118.97 200.62 118.949C187.46 118.923 174.294 118.907 161.134 119.022L147.86 119.141C147.752 119.173 147.657 119.239 147.59 119.329C147.523 119.419 147.486 119.529 147.486 119.641C147.486 119.754 147.523 119.863 147.59 119.953C147.657 120.044 147.752 120.109 147.86 120.141H147.854Z" fill="white"/>
<path opacity="0.39" d="M147.854 130.395C167.312 130.603 186.765 130.648 206.212 130.53C210.146 130.53 214.086 130.567 218.014 130.385C218.14 130.371 218.256 130.31 218.337 130.213C218.418 130.115 218.459 129.991 218.45 129.864C218.433 129.754 218.382 129.652 218.304 129.573C218.225 129.495 218.124 129.443 218.014 129.427C209.571 129.036 201.065 129.229 192.616 129.219C181.633 129.219 170.639 129.172 159.656 129.291L147.859 129.416C147.729 129.458 147.62 129.55 147.557 129.672C147.494 129.794 147.481 129.936 147.522 130.067C147.546 130.147 147.59 130.221 147.648 130.28C147.707 130.34 147.779 130.385 147.859 130.411L147.854 130.395Z" fill="white"/>
<path opacity="0.39" d="M147.854 140.67C173.408 140.878 198.954 140.922 224.494 140.8C229.252 140.8 234.021 140.831 238.774 140.66C238.899 140.646 239.015 140.585 239.096 140.488C239.177 140.391 239.218 140.266 239.209 140.139C239.193 140.029 239.141 139.927 239.063 139.848C238.985 139.77 238.883 139.718 238.774 139.702C227.967 139.317 217.113 139.514 206.306 139.494C191.58 139.468 176.854 139.452 162.134 139.572L147.854 139.691C147.724 139.733 147.615 139.825 147.552 139.947C147.489 140.069 147.476 140.211 147.517 140.342C147.542 140.422 147.585 140.496 147.644 140.555C147.702 140.615 147.774 140.66 147.854 140.686V140.67Z" fill="white"/>
</g>
</g>
<path d="M67.471 84.2252C82.7668 84.6312 98.0782 84.5844 113.384 84.548C128.691 84.5115 143.966 84.6833 159.277 84.142C159.4 84.1276 159.513 84.0648 159.591 83.9673C159.669 83.8699 159.705 83.7456 159.692 83.6214C159.681 83.5145 159.634 83.4145 159.559 83.3385C159.483 83.2626 159.383 83.2154 159.277 83.205C143.981 82.6845 128.665 82.8354 113.358 82.799C98.0523 82.7626 82.7772 82.7105 67.4658 83.1165C67.3937 83.1182 67.3226 83.1342 67.2565 83.1635C67.1905 83.1928 67.1309 83.2349 67.0811 83.2873C67.0313 83.3398 66.9923 83.4016 66.9662 83.4692C66.9402 83.5367 66.9277 83.6088 66.9294 83.6813C66.9311 83.7537 66.947 83.8252 66.9761 83.8914C67.0053 83.9577 67.0472 84.0176 67.0994 84.0676C67.1517 84.1177 67.2132 84.1569 67.2805 84.183C67.3478 84.2092 67.4196 84.2217 67.4917 84.22L67.471 84.2252Z" fill="#333333"/>
<path d="M101.157 88.9255C102.81 89.3419 104.562 89.2742 106.257 89.2586C107.952 89.243 109.735 89.3835 111.316 88.8318C111.375 88.8134 111.429 88.7836 111.476 88.7441C111.523 88.7045 111.562 88.6561 111.59 88.6014C111.619 88.5468 111.636 88.487 111.642 88.4256C111.647 88.3642 111.64 88.3024 111.622 88.2436C111.6 88.1712 111.56 88.1054 111.507 88.0518C111.454 87.9983 111.388 87.9587 111.316 87.9365C109.73 87.3847 107.89 87.5305 106.236 87.5149C104.583 87.4992 102.805 87.4368 101.152 87.8584C101.012 87.9049 100.896 88.0046 100.829 88.1361C100.762 88.2676 100.75 88.4203 100.794 88.5611C100.822 88.6493 100.872 88.7289 100.939 88.7926C101.006 88.8563 101.088 88.902 101.178 88.9255H101.157Z" fill="white"/>
<path d="M75.9758 88.9255C78.3542 89.2498 80.7566 89.3613 83.1546 89.2586C85.5182 89.2586 87.9854 89.3836 90.2972 88.8318C90.3558 88.8134 90.4102 88.7836 90.4573 88.7441C90.5044 88.7046 90.5432 88.6561 90.5717 88.6014C90.6001 88.5468 90.6175 88.4871 90.6228 88.4257C90.6282 88.3643 90.6215 88.3024 90.603 88.2436C90.5809 88.1712 90.5415 88.1054 90.4882 88.0518C90.4348 87.9983 90.3693 87.9587 90.2972 87.9365C87.9854 87.3848 85.5027 87.5305 83.1391 87.5149C80.7459 87.4133 78.3485 87.5283 75.9758 87.8584C75.4575 87.9521 75.4886 88.8318 75.9758 88.9255Z" fill="white"/>
<path d="M25.0564 136.495C31.1519 136.881 37.2837 136.855 43.3896 136.818C44.5144 136.818 44.4729 135.059 43.3482 135.064H41.3008C40.1864 135.064 40.233 136.803 41.3422 136.797C47.4429 136.761 53.5747 136.912 59.6599 136.397C59.7834 136.382 59.8962 136.319 59.9738 136.222C60.0515 136.124 60.0877 136 60.0745 135.876C60.0642 135.769 60.0172 135.669 59.9416 135.593C59.8659 135.517 59.7664 135.47 59.6599 135.46C53.5644 134.939 47.4274 135.095 41.3215 135.059C40.2071 135.059 40.2537 136.787 41.363 136.792H43.4363C44.561 136.792 44.5196 135.043 43.3948 135.038C37.2889 135.007 31.1675 134.981 25.0772 135.366C24.9314 135.369 24.793 135.431 24.6924 135.537C24.5918 135.643 24.5372 135.784 24.5407 135.931C24.5441 136.077 24.6053 136.216 24.7108 136.317C24.8162 136.418 24.9573 136.473 25.1031 136.469L25.0564 136.495Z" fill="#333333"/>
<path d="M40.6736 135.782C39.4711 130.343 37.8228 125.002 36.2004 119.677C34.5781 114.353 32.6188 109.095 31.0172 103.776C30.9772 103.661 30.8936 103.567 30.7848 103.515C30.6759 103.462 30.5507 103.455 30.4366 103.495C30.334 103.532 30.2479 103.605 30.1938 103.701C30.1397 103.796 30.1211 103.907 30.1412 104.015C31.7273 109.335 32.9713 114.805 34.5366 120.151C36.1019 125.497 37.6466 130.863 39.6214 136.069C39.689 136.198 39.8039 136.296 39.942 136.343C40.0801 136.39 40.2308 136.381 40.3626 136.318C40.4645 136.266 40.5477 136.184 40.6006 136.082C40.6536 135.98 40.6737 135.865 40.658 135.751L40.6736 135.782Z" fill="#333333"/>
<path d="M158.711 85.2871C161.344 95.1421 163.996 104.989 166.667 114.826C167.989 119.657 169.367 124.477 170.72 129.302C172.109 134.252 173.208 139.441 175.183 144.194C175.453 144.844 176.666 144.813 176.536 143.975C175.779 139.155 174.157 134.434 172.835 129.744C171.43 124.753 170.041 119.761 168.611 114.779C165.755 104.812 162.805 94.8802 159.872 84.9383C159.821 84.7896 159.715 84.6665 159.575 84.5947C159.436 84.5229 159.275 84.508 159.125 84.553C158.975 84.5981 158.848 84.6996 158.771 84.8364C158.693 84.9732 158.672 85.1347 158.711 85.2871Z" fill="#333333"/>
<path d="M91.0967 71.7276C76.9291 71.4986 62.7615 71.3806 48.5939 71.3737C46.7642 71.3737 43.9653 71.6391 42.6021 71.6391C41.7105 71.6391 41.7468 73.0289 42.6332 73.0289C42.0578 73.0289 43.4262 73.1434 43.7994 73.1694C44.9086 73.2475 46.023 73.2944 47.1374 73.2996C51.0093 73.336 54.9123 73.2996 58.7687 73.2996C67.4869 73.2996 76.2052 73.2423 84.9234 73.0549C86.9967 73.0081 89.0389 72.9821 91.0967 72.9456C91.2449 72.9271 91.3808 72.8533 91.4775 72.739C91.5741 72.6246 91.6245 72.478 91.6186 72.3281C91.6128 72.1782 91.5511 72.036 91.4458 71.9296C91.3405 71.8232 91.1993 71.7604 91.05 71.7536L91.0967 71.7276Z" fill="#333333"/>
<path d="M91.0964 67.8186C76.9288 67.5896 62.7612 67.4716 48.5936 67.4647C46.7639 67.4647 43.9649 67.7353 42.6017 67.7353C42.4189 67.7395 42.2452 67.8164 42.1188 67.9491C41.9925 68.0819 41.9238 68.2596 41.9279 68.4432C41.932 68.6268 42.0086 68.8013 42.1408 68.9282C42.273 69.0551 42.45 69.124 42.6328 69.1199C42.0575 69.1199 43.4259 69.2344 43.7991 69.2604C44.9083 69.3368 46.021 69.3801 47.1371 69.3906C51.009 69.4322 54.912 69.3906 58.7684 69.3906C67.4866 69.3906 76.2049 69.3333 84.9231 69.1459C86.9964 69.0991 89.0386 69.073 91.0964 69.0366C91.2446 69.0181 91.3805 68.9443 91.4772 68.83C91.5738 68.7156 91.6242 68.569 91.6183 68.4191C91.6125 68.2692 91.5508 68.127 91.4455 68.0206C91.3402 67.9142 91.199 67.8514 91.0497 67.8446L91.0964 67.8186Z" fill="#333333"/>
<path d="M66.3614 87.0463C69.1189 96.0877 71.8453 105.134 74.6546 114.165C76.0697 118.725 77.464 123.3 78.9153 127.855C80.3251 132.274 81.5069 136.886 83.3418 141.154C83.3974 141.297 83.507 141.412 83.6468 141.475C83.7865 141.537 83.9452 141.541 84.0882 141.487C84.218 141.439 84.3257 141.344 84.3907 141.221C84.4556 141.098 84.4734 140.956 84.4406 140.821C83.5025 136.271 81.849 131.805 80.5065 127.371C79.1122 122.795 77.6661 118.241 76.2407 113.681C73.421 104.659 70.5512 95.6539 67.6313 86.6663C67.5752 86.5059 67.4596 86.3734 67.3087 86.2964C67.1578 86.2193 66.9831 86.2036 66.8209 86.2525C66.6588 86.3014 66.5216 86.4112 66.438 86.559C66.3543 86.7069 66.3306 86.8814 66.3718 87.0463H66.3614Z" fill="#333333"/>
<path d="M25.6983 144.069C25.7605 142.908 26.6728 135.329 25.0297 135.366C23.3866 135.402 24.3196 142.919 24.3818 144.1C24.3859 144.275 24.4592 144.442 24.5856 144.563C24.712 144.684 24.881 144.75 25.0556 144.746C25.2302 144.741 25.396 144.668 25.5165 144.541C25.6371 144.414 25.7025 144.244 25.6983 144.069Z" fill="#333333"/>
<path d="M60.3077 144.069C60.3647 142.908 61.2769 135.329 59.6339 135.366C57.9908 135.402 58.9289 142.919 58.9911 144.1C58.9932 144.187 59.0122 144.272 59.0472 144.352C59.0822 144.431 59.1324 144.503 59.1949 144.563C59.2575 144.623 59.3312 144.67 59.4119 144.701C59.4925 144.733 59.5785 144.748 59.665 144.746C59.7514 144.743 59.8366 144.724 59.9157 144.689C59.9948 144.654 60.0662 144.604 60.1259 144.541C60.1855 144.478 60.2323 144.404 60.2635 144.323C60.2947 144.242 60.3097 144.156 60.3077 144.069Z" fill="#333333"/>
<path d="M0.735672 144.74C21.6139 144.841 42.492 144.921 63.3702 144.98C93.6923 145.018 124.009 144.995 154.321 144.912C161.329 144.912 169.295 144.714 175.863 144.761C176.853 144.761 176.811 143.231 175.826 143.2C157.027 143.054 136.869 142.997 117.639 142.965C86.9023 142.919 56.1655 142.908 25.4287 143.09L0.699389 143.22C-0.259515 143.22 -0.218049 144.709 0.735672 144.714V144.74Z" fill="#333333"/>
<path d="M289.904 144.584C291.584 144.694 293.253 144.751 294.932 144.761C295.111 144.757 295.281 144.682 295.404 144.552C295.527 144.422 295.595 144.248 295.59 144.069C295.586 143.889 295.511 143.719 295.382 143.595C295.253 143.471 295.08 143.404 294.901 143.408H294.751C293.88 143.408 293.916 144.756 294.787 144.766C296.842 144.843 298.899 144.778 300.945 144.574C301.463 144.506 301.644 143.689 301.054 143.611C298.96 143.392 296.854 143.325 294.751 143.408C294.581 143.427 294.425 143.509 294.313 143.638C294.202 143.766 294.142 143.933 294.146 144.104C294.151 144.275 294.219 144.438 294.338 144.561C294.457 144.683 294.617 144.757 294.787 144.766H294.942C295.121 144.762 295.291 144.687 295.414 144.557C295.538 144.427 295.605 144.254 295.601 144.074C295.597 143.895 295.522 143.724 295.392 143.6C295.263 143.476 295.09 143.409 294.911 143.413C293.232 143.413 291.568 143.481 289.889 143.59C289.781 143.622 289.687 143.687 289.619 143.777C289.552 143.868 289.516 143.977 289.516 144.09C289.516 144.202 289.552 144.312 289.619 144.402C289.687 144.492 289.781 144.558 289.889 144.589L289.904 144.584Z" fill="#333333"/>
<path d="M169.648 144.584H171.431C171.565 144.554 171.681 144.472 171.755 144.356C171.829 144.24 171.854 144.099 171.825 143.965C171.802 143.869 171.754 143.782 171.684 143.712C171.614 143.643 171.526 143.596 171.431 143.575L165.729 143.543L156.7 143.502H154.627C154.471 143.506 154.324 143.572 154.217 143.685C154.11 143.798 154.052 143.949 154.056 144.105C154.06 144.261 154.126 144.409 154.239 144.517C154.352 144.624 154.502 144.682 154.658 144.678C159.566 144.704 164.475 144.74 169.383 144.751C188.722 144.803 208.061 144.751 227.4 144.782C247.355 144.782 267.347 145.006 287.297 144.579C287.427 144.579 287.551 144.528 287.642 144.436C287.733 144.344 287.785 144.22 287.785 144.09C287.785 143.96 287.733 143.836 287.642 143.744C287.551 143.652 287.427 143.601 287.297 143.601C256.716 142.945 226.099 143.398 195.522 143.413C183.311 143.413 171.099 143.413 158.892 143.481H154.647C154.492 143.485 154.345 143.551 154.238 143.664C154.131 143.777 154.073 143.929 154.077 144.085C154.081 144.241 154.147 144.389 154.26 144.496C154.372 144.603 154.523 144.661 154.678 144.657L160.344 144.631L169.368 144.59H171.441C171.575 144.56 171.692 144.478 171.765 144.362C171.839 144.245 171.864 144.105 171.835 143.97C171.813 143.874 171.764 143.787 171.694 143.718C171.625 143.649 171.537 143.601 171.441 143.58H169.653C169.588 143.6 169.527 143.634 169.475 143.678C169.423 143.722 169.38 143.776 169.349 143.837C169.317 143.898 169.298 143.965 169.293 144.033C169.287 144.101 169.295 144.17 169.316 144.236C169.343 144.319 169.39 144.394 169.453 144.454C169.517 144.514 169.594 144.557 169.679 144.579L169.648 144.584Z" fill="#333333"/>
<path d="M174.173 140.134C183.803 140.255 193.434 140.316 203.064 140.316C212.658 140.316 222.362 140.66 231.945 140.123C232.075 140.123 232.199 140.072 232.29 139.98C232.381 139.888 232.433 139.764 232.433 139.634C232.433 139.504 232.381 139.38 232.29 139.288C232.199 139.196 232.075 139.145 231.945 139.145C222.356 138.624 212.648 138.937 203.054 138.952C193.46 138.968 183.798 139.015 174.168 139.134C174.102 139.155 174.042 139.189 173.99 139.233C173.938 139.277 173.895 139.331 173.863 139.392C173.832 139.453 173.813 139.52 173.807 139.588C173.802 139.656 173.81 139.725 173.831 139.79C173.857 139.874 173.905 139.949 173.968 140.009C174.032 140.069 174.109 140.112 174.193 140.134H174.173Z" fill="#333333"/>
<path d="M175.147 36.1035C176.287 44.7597 173.939 57.1532 184.114 61.1872C190.23 63.6128 199.783 61.1872 202.649 54.7328C202.862 54.2487 202.266 53.723 201.872 54.1602C197.305 59.1988 189.95 62.7175 183.393 59.0478C175.448 54.6078 177.775 43.3699 176.479 35.8901C176.349 35.1406 175.048 35.3384 175.147 36.1035Z" fill="#333333"/>
<path d="M202.758 34.0995C206.148 33.0585 209.657 35.4685 209.227 39.1798C208.797 42.891 205.599 43.3439 202.592 43.2242C201.913 43.1981 201.784 44.1299 202.297 44.4422C206.044 46.7533 210.59 42.8442 210.673 38.9507C210.777 34.5159 206.495 31.6271 202.406 32.9128C202.253 32.9628 202.125 33.0709 202.051 33.214C201.976 33.3571 201.96 33.5239 202.006 33.6787C202.052 33.8335 202.156 33.9642 202.297 34.0428C202.437 34.1214 202.603 34.1418 202.758 34.0995Z" fill="#333333"/>
<path d="M190.04 37.6443C189.999 39.2058 190.071 41.1578 190.621 42.636C190.662 42.7597 190.742 42.8667 190.849 42.9415C190.956 43.0164 191.083 43.0551 191.213 43.0522C191.343 43.0493 191.469 43.0049 191.572 42.9254C191.675 42.8459 191.75 42.7354 191.787 42.61C192.051 40.986 191.745 39.0184 191.393 37.4048C191.217 36.6085 190.056 36.8843 190.04 37.6235V37.6443Z" fill="#333333"/>
<path d="M178.392 38.2637C178.24 39.0593 178.176 39.8692 178.201 40.6789C178.201 41.4649 178.061 42.3549 178.361 43.0889C178.527 43.4897 179.201 43.7031 179.398 43.1982C179.64 42.4304 179.72 41.62 179.631 40.8194C179.678 39.9482 179.62 39.0744 179.46 38.2168C179.437 38.1454 179.399 38.0793 179.35 38.0223C179.302 37.9653 179.242 37.9186 179.175 37.8847C179.108 37.8509 179.035 37.8306 178.96 37.8251C178.886 37.8196 178.811 37.8289 178.74 37.8525C178.655 37.8809 178.578 37.9286 178.515 37.9918C178.453 38.055 178.405 38.1321 178.377 38.2168L178.392 38.2637Z" fill="#333333"/>
<path d="M183.607 40.3718C183.524 43.1982 179.921 46.8313 182.368 49.5692C183.658 51.0111 186.779 50.7404 186.717 48.4085C186.717 47.8568 185.882 47.4247 185.504 47.94C184.809 48.8874 183.674 48.9811 183.161 47.7318C182.684 46.5867 183.161 45.4572 183.607 44.3901C184.151 43.0472 184.643 41.8188 184.555 40.3457C184.54 40.228 184.482 40.1201 184.392 40.043C184.302 39.9658 184.187 39.9249 184.069 39.9282C183.951 39.9314 183.838 39.9786 183.753 40.0605C183.667 40.1425 183.615 40.2534 183.607 40.3718Z" fill="#333333"/>
<path d="M187.535 54.686C188.05 54.8054 188.586 54.809 189.103 54.6965C189.62 54.584 190.105 54.3583 190.525 54.0354C191.308 53.442 192.044 52.3801 191.749 51.3495C191.719 51.252 191.661 51.1655 191.582 51.1008C191.504 51.036 191.408 50.9959 191.307 50.9853C191.206 50.9748 191.104 50.9943 191.014 51.0415C190.924 51.0887 190.849 51.1614 190.8 51.2506C190.468 51.8544 190.318 52.4738 189.764 52.9631C189.504 53.2128 189.191 53.3994 188.849 53.5086C188.507 53.6178 188.144 53.6466 187.789 53.5929C187.084 53.4784 186.799 54.5246 187.514 54.686H187.535Z" fill="#333333"/>
<path d="M181.678 45.8372C186.374 41.5013 181.678 31.3044 175.188 34.7346C172.135 36.3534 170.938 41.241 172.649 44.1715C174.447 47.2478 179.008 48.5907 181.574 45.7331C181.615 45.688 181.647 45.6353 181.667 45.5779C181.688 45.5205 181.697 45.4596 181.694 45.3986C181.691 45.3377 181.677 45.2779 181.651 45.2228C181.625 45.1676 181.588 45.1181 181.543 45.0772C181.472 45.0175 181.385 44.9803 181.292 44.9701C181.2 44.9599 181.107 44.9773 181.025 45.0199C178.433 46.2588 174.805 45.655 173.701 42.6776C172.83 40.3665 173.887 36.4783 176.401 35.5778C181.776 33.6415 184.389 41.824 180.833 44.9939C180.221 45.5196 181.108 46.3681 181.678 45.8372Z" fill="#333333"/>
<path d="M195.196 45.1658C200.898 40.4811 195.098 30.7475 188.271 34.1621C185.016 35.7913 183.202 40.7986 185.358 43.9269C187.515 47.0552 192.382 47.784 195.098 45.0669C195.403 44.7598 195.061 44.1039 194.626 44.3017C192.138 45.4156 188.795 45.551 186.851 43.2607C184.778 40.8299 186.416 36.343 189.158 35.1198C194.787 32.6057 199.006 40.5384 194.439 44.2132C194.314 44.314 194.233 44.4608 194.215 44.6214C194.197 44.782 194.243 44.9432 194.343 45.0695C194.444 45.1958 194.59 45.2769 194.75 45.295C194.91 45.313 195.07 45.2665 195.196 45.1658Z" fill="#333333"/>
<path d="M37.4122 34.8595C43.3004 30.253 46.2912 22.9918 44.845 15.5588C44.1638 11.9899 42.4819 8.69061 39.9972 6.04882C37.5125 3.40704 34.3283 1.53263 30.8191 0.646036C23.7129 -1.09249 15.0309 0.599189 10.4489 6.67881C5.20861 13.6173 4.40003 25.0686 10.1016 31.9082C16.8969 40.0647 29.2486 41.3712 37.433 34.6617C37.8425 34.3234 37.2878 33.6623 36.8524 33.9434C29.4093 38.7478 19.5455 38.5812 12.8487 32.4651C6.32302 26.5104 6.34375 15.8867 10.7754 8.62033C14.5333 2.49387 22.0698 0.427419 28.8806 1.44242C32.1454 1.92702 35.2108 3.31701 37.7317 5.45596C40.2527 7.59491 42.1292 10.3979 43.1501 13.5496C44.3134 17.182 44.3222 21.0879 43.1751 24.7254C42.0281 28.363 39.7821 31.5519 36.7488 33.8497C36.1838 34.2974 36.8162 35.3384 37.4122 34.8595Z" fill="#333333"/>
<path d="M200.567 15.8243C201.079 15.4545 201.545 15.0247 201.956 14.5438C202.531 13.9556 203.246 13.8827 203.977 13.5808C204.144 13.5263 204.286 13.4139 204.377 13.2638C204.468 13.1138 204.503 12.9359 204.476 12.7622C204.449 12.5885 204.36 12.4303 204.227 12.316C204.094 12.2018 203.924 12.139 203.749 12.139C203.267 12.1148 202.785 12.1875 202.331 12.3529C201.877 12.5182 201.46 12.7729 201.106 13.102C200.681 13.5907 200.224 14.0498 199.737 14.4761C198.908 15.0487 199.712 16.3812 200.567 15.8243Z" fill="#333333"/>
<path d="M191.445 61.1664C191.569 61.4579 191.662 61.7702 191.787 62.0617C191.859 62.2283 191.787 61.9628 191.787 62.0617V62.2075C191.81 62.5215 191.9 62.827 192.05 63.1035C192.2 63.38 192.407 63.6211 192.658 63.8107C193.077 64.1021 193.518 63.6649 193.554 63.2641C193.554 62.9197 193.482 62.5791 193.342 62.2647C193.316 62.1918 193.3 62.1138 193.274 62.0461C193.316 62.1606 193.274 62.1918 193.274 62.0461C193.182 61.5184 192.994 61.0121 192.72 60.5522C192.362 59.8339 191.108 60.3856 191.429 61.1352L191.445 61.1664Z" fill="#333333"/>
<path d="M204.676 38.0295C204.891 38.1303 205.07 38.2944 205.189 38.4999C205.309 38.7054 205.363 38.9426 205.345 39.1798C205.298 39.7368 204.884 39.9293 204.562 40.3093C204.503 40.3834 204.466 40.4723 204.454 40.5662C204.442 40.6601 204.455 40.7556 204.493 40.8424C204.531 40.9291 204.592 41.0039 204.669 41.0585C204.746 41.1132 204.836 41.1457 204.93 41.1526C205.858 41.1005 206.516 40.0803 206.61 39.2214C206.653 38.7411 206.554 38.2585 206.327 37.8338C206.099 37.409 205.752 37.0608 205.329 36.8323C205.251 36.7891 205.165 36.7619 205.076 36.7522C204.988 36.7424 204.898 36.7503 204.812 36.7755C204.726 36.8006 204.646 36.8425 204.577 36.8987C204.507 36.9549 204.45 37.0243 204.407 37.1029C204.321 37.262 204.302 37.4483 204.352 37.6217C204.403 37.7951 204.519 37.9416 204.676 38.0295Z" fill="#333333"/>
<path d="M207.231 45.3583C206.438 48.435 206.262 51.6392 206.713 54.7849C207.039 57.6425 207.039 60.9322 207.832 63.6753C207.881 63.8226 207.986 63.9447 208.124 64.0149C208.261 64.0851 208.421 64.0978 208.568 64.05C208.655 64.0213 208.733 63.9723 208.797 63.9072C208.861 63.842 208.909 63.7626 208.936 63.6753C209.574 61.1404 208.662 58.1526 208.299 55.6125C207.762 52.3087 207.732 48.9418 208.211 45.629C208.206 45.5195 208.166 45.4144 208.099 45.3287C208.031 45.243 207.937 45.181 207.832 45.1516C207.727 45.1222 207.615 45.1268 207.513 45.1649C207.411 45.2029 207.323 45.2725 207.262 45.3635L207.231 45.3583Z" fill="#333333"/>
<path d="M190.759 63.4306C189.722 65.8562 187.488 70.5981 189.722 73.0185C191.366 74.7987 194.387 73.8409 196.269 73.107C199.444 71.8367 202.432 70.1362 205.148 68.0528C206.324 67.1731 209.294 65.2836 209.175 63.4879C209.092 62.4208 207.428 62.4468 207.517 63.5295C207.584 64.3415 204.707 66.3663 204.028 66.9024C201.972 68.5511 199.75 69.9798 197.399 71.1655C195.885 71.9046 192.858 73.4557 191.179 72.4251C188.795 70.9781 191.283 65.8042 191.993 64.0969C192.34 63.2692 191.112 62.5822 190.764 63.415L190.759 63.4306Z" fill="#333333"/>
<path d="M190.476 23.5018C188.066 27.4161 188.247 32.3506 192.596 34.9011C193.052 35.1666 193.669 34.5784 193.332 34.1256C192.171 32.564 190.647 31.3616 190.134 29.3732C189.621 27.3849 190.248 25.5891 191.103 23.8506C191.126 23.8103 191.141 23.7658 191.147 23.7196C191.153 23.6734 191.15 23.6265 191.138 23.5815C191.126 23.5366 191.105 23.4944 191.077 23.4575C191.049 23.4206 191.014 23.3897 190.973 23.3665C190.932 23.3428 190.887 23.3276 190.84 23.3218C190.793 23.3161 190.746 23.3199 190.7 23.333C190.655 23.3461 190.612 23.3683 190.576 23.3982C190.539 23.4281 190.508 23.4651 190.486 23.507L190.476 23.5018Z" fill="#333333"/>
<path d="M192.683 23.7152C191.128 27.2131 191.698 33.0845 195.86 34.5628C195.933 34.58 196.009 34.5677 196.072 34.5287C196.135 34.4897 196.18 34.427 196.197 34.3546C196.208 34.3082 196.207 34.2596 196.193 34.2139C196.18 34.1682 196.154 34.127 196.12 34.0943C192.875 31.5542 191.455 27.8481 193.01 23.8506C193.082 23.6528 192.766 23.5279 192.683 23.7152Z" fill="#333333"/>
<path d="M192.833 46.644C192.972 47.2571 193.185 47.8512 193.465 48.4138C193.667 48.7521 194.248 48.5074 194.108 48.1223C193.858 47.5433 193.538 46.9978 193.154 46.4982C193.124 46.4604 193.081 46.4359 193.033 46.43C192.986 46.4241 192.938 46.4374 192.9 46.467C192.874 46.4878 192.854 46.5152 192.842 46.5463C192.831 46.5774 192.827 46.6111 192.833 46.644Z" fill="#333333"/>
<path d="M176.491 25.1727C174.614 28.3427 174.252 35.2655 178.74 36.6241C179.176 36.7542 179.642 36.1816 179.342 35.7964C178.274 34.4171 177.134 33.501 176.62 31.7156C176.019 29.6604 176.195 27.4549 177.113 25.5215C177.149 25.4396 177.154 25.347 177.125 25.262C177.097 25.1769 177.038 25.1055 176.96 25.0618C176.882 25.0181 176.791 25.0053 176.704 25.0258C176.617 25.0463 176.541 25.0987 176.491 25.1727Z" fill="#333333"/>
<path d="M196.347 11.8788C197.254 11.8788 198.084 12.9198 198.493 13.5809C198.826 14.1367 198.941 14.7976 198.814 15.4339C198.747 15.7247 198.757 16.0283 198.845 16.3136C198.892 16.4551 198.992 16.5726 199.124 16.6408C199.255 16.709 199.409 16.7223 199.55 16.678C199.591 16.666 199.629 16.6484 199.664 16.6259C200.903 15.892 200.183 13.5497 199.467 12.7064C198.752 11.8632 197.394 10.9367 196.207 11.1969C195.808 11.2802 195.927 11.9048 196.321 11.8996L196.347 11.8788Z" fill="#333333"/>
<path d="M196.98 38.7842C198.38 37.9201 199.805 37.0873 201.184 36.1816C202.309 35.4425 204.138 34.6201 204.895 33.4385C204.967 33.3067 204.984 33.1515 204.942 33.007C204.901 32.8625 204.803 32.7407 204.672 32.6682C204.581 32.6195 204.479 32.5961 204.377 32.6005C202.998 32.8191 201.495 34.11 200.344 34.8439C198.955 35.7288 197.612 36.6865 196.249 37.613C196.167 37.6583 196.094 37.72 196.037 37.7944C195.979 37.8688 195.937 37.9543 195.913 38.0456C195.889 38.1369 195.884 38.2322 195.899 38.3255C195.913 38.4187 195.946 38.5081 195.996 38.5881C196.046 38.6681 196.111 38.7369 196.189 38.7905C196.266 38.8441 196.354 38.8812 196.446 38.8995C196.538 38.9179 196.633 38.9171 196.725 38.8973C196.817 38.8775 196.904 38.839 196.98 38.7842Z" fill="#333333"/>
<path d="M182.986 40.5487C183.364 40.6164 183.748 40.7049 184.131 40.7465C184.603 40.7934 185.334 40.809 185.686 40.4758C185.801 40.3565 185.865 40.1969 185.865 40.0308C185.865 39.8647 185.801 39.7051 185.686 39.5858C185.411 39.2578 184.587 39.1902 184.204 39.1745C183.847 39.1589 183.491 39.1693 183.136 39.2058C182.395 39.2058 182.213 40.4134 182.991 40.5487H182.986Z" fill="#333333"/>
<path d="M123.124 58.1266C121.139 59.3758 85.3639 59.6881 84.5034 58.1266C83.643 56.565 83.6897 37.8681 84.5034 36.2909C85.3172 34.7138 121.761 34.9896 123.124 36.2909C124.487 37.5922 125.109 56.8721 123.124 58.1266Z" fill="#FF842C"/>
<path d="M105.392 59.8651L105.34 64.1177L106.377 63.4879C105.392 62.7644 104.418 62.0357 103.433 61.3226C102.769 60.8437 102.08 60.4065 101.385 59.9744C101.147 59.8235 100.909 59.6569 100.66 59.5216C100.582 59.4747 100.188 59.2665 100.364 59.3915C99.82 59.0011 99.3276 59.912 99.846 60.3024C99.4572 60.0265 99.8459 60.3544 99.9548 60.4689C100.164 60.6554 100.384 60.8292 100.613 60.9894C101.266 61.51 101.919 62.0305 102.603 62.551C103.64 63.2797 104.677 63.9876 105.682 64.7059C105.848 64.7929 106.04 64.811 106.219 64.7565C106.397 64.7019 106.547 64.5791 106.636 64.4144C106.694 64.3096 106.723 64.1908 106.719 64.0709L106.667 59.8235C106.649 59.6616 106.572 59.5123 106.45 59.4052C106.327 59.298 106.17 59.2407 106.008 59.2446C105.845 59.2486 105.691 59.3134 105.574 59.4264C105.457 59.5393 105.387 59.6922 105.376 59.8547L105.392 59.8651Z" fill="#333333"/>
<path d="M98.6178 42.4747C97.2857 43.9009 95.9173 45.2906 94.6423 46.7637C94.5253 46.8915 94.4604 47.0586 94.4604 47.2322C94.4604 47.4057 94.5253 47.5729 94.6423 47.7006C95.6374 48.7677 96.7156 50.475 98.0839 51.058C98.4727 51.2245 99.0688 50.907 98.877 50.4125C98.3016 48.9655 96.643 47.8099 95.5545 46.7429V47.6798C96.7829 46.1495 97.9233 44.5567 99.0895 42.9691C99.359 42.61 98.8977 42.1311 98.5712 42.4747H98.6178Z" fill="#333333"/>
<path d="M108.268 42.9119C109.424 44.4735 110.548 46.035 111.761 47.5706L111.849 46.7638C110.813 47.8048 109.139 48.9343 108.594 50.3033C108.444 50.6885 108.739 51.3443 109.237 51.0997C110.662 50.4855 111.751 48.8042 112.803 47.6799C112.922 47.5533 112.989 47.3856 112.989 47.2114C112.989 47.0372 112.922 46.8695 112.803 46.7429C111.528 45.2751 110.165 43.8853 108.838 42.4643C108.563 42.1728 108.045 42.584 108.288 42.9119H108.268Z" fill="#333333"/>
<path d="M104.551 40.3093C103.799 42.7193 103.038 45.1293 102.312 47.5497C101.851 49.08 101.394 50.6155 100.928 52.1459C100.752 52.7288 100.327 53.5304 100.503 54.1498C100.527 54.2254 100.566 54.2954 100.617 54.356C100.668 54.4165 100.73 54.4663 100.801 54.5025C100.871 54.5388 100.948 54.5608 101.026 54.5673C101.105 54.5737 101.184 54.5645 101.26 54.5402C101.348 54.5151 101.429 54.4665 101.493 54.3997C101.954 53.9937 102.037 53.0255 102.193 52.4738C102.633 50.9122 103.089 49.4027 103.535 47.8672C104.245 45.4468 104.914 43.0108 105.608 40.58C105.8 39.9033 104.769 39.6535 104.572 40.3145L104.551 40.3093Z" fill="#333333"/>
<path d="M191.045 47.508L191.252 48.0806C191.329 48.3456 191.424 48.6048 191.537 48.8562C191.59 48.9411 191.671 49.0042 191.767 49.0338C191.862 49.0635 191.964 49.0577 192.056 49.0175C192.151 48.9741 192.227 48.897 192.269 48.801C192.311 48.705 192.316 48.5968 192.284 48.497C192.216 48.2575 192.133 48.0228 192.035 47.7943L191.848 47.2426C191.672 46.7221 190.853 46.9771 191.04 47.4872L191.045 47.508Z" fill="#333333"/>
<path d="M177.994 48.4918L178.201 49.0592C178.281 49.3249 178.376 49.5856 178.486 49.84C178.538 49.9257 178.62 49.9891 178.715 50.018C178.811 50.0468 178.914 50.039 179.004 49.9961C179.1 49.9527 179.175 49.8756 179.217 49.7796C179.259 49.6836 179.265 49.5753 179.233 49.4756C179.17 49.2346 179.087 48.9996 178.984 48.7729L178.797 48.2524C178.621 47.7319 177.807 47.9869 177.989 48.497L177.994 48.4918Z" fill="#333333"/>
<path d="M179.652 48.1119L179.786 48.4659C179.818 48.5491 179.854 48.6376 179.88 48.7209C179.899 48.8138 179.933 48.9033 179.978 48.9864C180.034 49.0817 180.126 49.151 180.233 49.1793C180.339 49.2075 180.453 49.1925 180.548 49.1373C180.614 49.0994 180.668 49.0437 180.704 48.9765C180.74 48.9093 180.756 48.8334 180.751 48.7574C180.715 48.5775 180.657 48.4027 180.579 48.2368L180.46 47.8829C180.428 47.7752 180.354 47.6848 180.256 47.6316C180.157 47.5784 180.041 47.5668 179.934 47.5992C179.827 47.6316 179.737 47.7055 179.684 47.8046C179.631 47.9037 179.619 48.0198 179.652 48.1275V48.1119Z" fill="#333333"/>
<path d="M205.065 86.8694C205.584 92.2464 206.351 97.5973 206.963 102.964C207.211 105.14 207.429 107.315 207.533 109.507C207.657 112.109 207.377 114.816 207.761 117.366C207.854 117.975 208.829 118.241 208.953 117.497C209.71 113.01 208.761 107.805 208.295 103.297C207.719 97.7951 206.921 92.3245 206.221 86.8434C206.128 86.1199 205.003 86.1251 205.081 86.8434L205.065 86.8694Z" fill="#333333"/>
<path d="M175.868 123.274C182.187 122.634 188.567 122.514 194.911 122.296C198.291 122.176 201.65 122.046 205.04 121.879C207.455 121.76 210.363 121.843 212.674 121.083C212.808 121.038 212.922 120.946 212.995 120.825C213.068 120.704 213.095 120.56 213.073 120.421C213.051 120.281 212.98 120.153 212.872 120.061C212.765 119.969 212.629 119.918 212.488 119.917C209.896 119.641 206.963 120.094 204.35 120.214C201.069 120.365 197.788 120.474 194.502 120.599C188.282 120.838 182.021 120.979 175.842 121.64C174.806 121.749 174.806 123.394 175.884 123.29L175.868 123.274Z" fill="#333333"/>
<path d="M175.391 79.0305C173.219 82.674 171.379 86.5066 169.892 90.4818C168.368 94.6459 166.409 99.4919 166.217 103.942C166.226 104.12 166.305 104.286 166.436 104.405C166.567 104.524 166.74 104.586 166.917 104.577C167.023 104.569 167.126 104.535 167.216 104.478C167.307 104.421 167.382 104.342 167.435 104.249C169.379 100.403 169.985 95.6922 171.338 91.5853C172.709 87.463 174.361 83.4403 176.283 79.5458C176.353 79.427 176.373 79.2852 176.339 79.1515C176.305 79.0178 176.22 78.9031 176.101 78.8327C176.042 78.798 175.977 78.7754 175.91 78.7661C175.842 78.7568 175.774 78.7609 175.708 78.7783C175.642 78.7957 175.58 78.826 175.525 78.8675C175.471 78.909 175.426 78.9608 175.391 79.02V79.0305Z" fill="#333333"/>
<path d="M125.082 113.806C125.549 117.746 123.527 120.937 120.62 120.937C117.712 120.937 114.876 117.746 114.337 113.806C113.798 109.866 115.794 106.68 118.795 106.68C121.796 106.68 124.611 109.871 125.082 113.806Z" fill="white"/>
<path d="M267.642 135.647H228.519V143.2H267.642V135.647Z" fill="white"/>
<path d="M224.97 136.199C231.869 136.605 238.799 136.553 245.703 136.516C252.607 136.48 259.542 136.652 266.436 136.11C266.559 136.096 266.672 136.033 266.75 135.936C266.827 135.838 266.864 135.714 266.851 135.59C266.84 135.483 266.793 135.383 266.718 135.307C266.642 135.231 266.542 135.184 266.436 135.173C259.547 134.653 252.607 134.804 245.703 134.767C238.799 134.731 231.869 134.679 224.97 135.085C224.833 135.098 224.705 135.162 224.613 135.265C224.52 135.367 224.469 135.501 224.469 135.639C224.469 135.778 224.52 135.911 224.613 136.014C224.705 136.116 224.833 136.18 224.97 136.194V136.199Z" fill="#333333"/>
<path d="M227.966 135.512C227.675 136.888 227.562 138.296 227.629 139.702C227.629 140.826 229.36 140.784 229.375 139.66V138.656C229.353 138.428 229.242 138.218 229.066 138.073C228.89 137.928 228.664 137.858 228.437 137.88C228.231 137.902 228.04 137.997 227.898 138.147C227.755 138.298 227.671 138.495 227.66 138.702C227.696 140.071 227.577 141.55 228.074 142.866C228.114 142.984 228.199 143.08 228.31 143.135C228.421 143.189 228.548 143.198 228.665 143.158C228.737 143.135 228.802 143.093 228.854 143.038C228.906 142.982 228.942 142.914 228.961 142.84C229.479 141.539 229.334 140.05 229.37 138.676C229.37 137.573 227.68 137.635 227.655 138.723V139.723C227.655 140.847 229.417 140.805 229.401 139.681C229.467 138.284 229.35 136.884 229.054 135.517C229.009 135.377 228.91 135.261 228.78 135.194C228.65 135.126 228.499 135.113 228.359 135.158C228.272 135.187 228.192 135.237 228.128 135.305C228.064 135.372 228.017 135.453 227.991 135.543L227.966 135.512Z" fill="#333333"/>
<path d="M267.104 135.996C266.813 137.372 266.7 138.78 266.767 140.186C266.767 141.315 268.498 141.269 268.509 140.144V139.145C268.503 138.917 268.408 138.701 268.244 138.544C268.079 138.386 267.86 138.301 267.633 138.307C267.406 138.312 267.191 138.408 267.034 138.573C266.878 138.738 266.793 138.959 266.798 139.186C266.829 140.555 266.715 142.039 267.213 143.351C267.231 143.409 267.261 143.464 267.3 143.511C267.34 143.559 267.388 143.598 267.442 143.626C267.497 143.655 267.556 143.672 267.617 143.678C267.679 143.683 267.74 143.676 267.799 143.658C267.871 143.636 267.937 143.597 267.991 143.543C268.044 143.49 268.083 143.423 268.105 143.351C268.623 142.049 268.478 140.555 268.509 139.186C268.54 138.078 266.824 138.145 266.798 139.228V140.227C266.798 141.357 268.555 141.315 268.54 140.186C268.608 138.789 268.493 137.389 268.198 136.022C268.144 135.886 268.038 135.776 267.904 135.718C267.77 135.659 267.619 135.656 267.483 135.709C267.41 135.741 267.345 135.786 267.291 135.844C267.236 135.901 267.194 135.969 267.166 136.043L267.104 135.996Z" fill="#333333"/>
<path d="M224.968 144.345C232.08 144.511 239.191 144.636 246.308 144.647C250.506 144.647 254.704 144.595 258.908 144.569C261.189 144.569 263.848 144.907 266.082 144.36C266.18 144.332 266.271 144.284 266.35 144.22C266.429 144.155 266.495 144.076 266.543 143.986C266.591 143.895 266.621 143.797 266.631 143.695C266.641 143.593 266.63 143.49 266.6 143.392C266.562 143.27 266.495 143.159 266.405 143.068C266.315 142.977 266.204 142.91 266.082 142.872C263.848 142.325 261.173 142.69 258.898 142.674C254.694 142.643 250.496 142.586 246.292 142.586C239.181 142.586 232.074 142.726 224.968 142.846C224.781 142.865 224.609 142.955 224.485 143.096C224.361 143.238 224.295 143.421 224.3 143.61C224.304 143.798 224.379 143.978 224.51 144.113C224.64 144.248 224.817 144.329 225.004 144.34L224.968 144.345Z" fill="#333333"/>
<path d="M231.324 138.343C229.251 139.681 228.987 141.107 233.112 141.107C237.238 141.107 264.435 142.07 264.575 141.107C264.715 140.144 267.462 138.505 263.886 138.343C260.309 138.182 232.838 137.38 231.324 138.343Z" fill="#FF842C"/>
<path d="M262.289 124.029H223.166V134.59H262.289V124.029Z" fill="white"/>
<path d="M265.844 123.477C258.945 123.071 252.01 123.123 245.111 123.155C238.212 123.186 231.271 123.019 224.378 123.561C224.254 123.575 224.141 123.638 224.064 123.735C223.986 123.833 223.95 123.957 223.963 124.081C223.973 124.188 224.02 124.288 224.096 124.364C224.172 124.44 224.271 124.487 224.378 124.498C231.266 125.018 238.212 124.867 245.111 124.904C252.01 124.94 258.94 124.992 265.844 124.586C265.989 124.586 266.129 124.528 266.232 124.424C266.335 124.321 266.393 124.181 266.393 124.034C266.393 123.888 266.335 123.748 266.232 123.644C266.129 123.541 265.989 123.483 265.844 123.483V123.477Z" fill="#333333"/>
<path d="M261.769 123.894C261.481 125.812 261.368 127.753 261.433 129.692L263.174 129.645V128.25C263.171 128.138 263.147 128.026 263.101 127.923C263.056 127.82 262.99 127.727 262.909 127.649C262.828 127.571 262.732 127.51 262.627 127.47C262.522 127.429 262.41 127.41 262.298 127.412C262.186 127.415 262.075 127.44 261.972 127.486C261.87 127.531 261.777 127.597 261.699 127.679C261.622 127.76 261.561 127.857 261.521 127.962C261.48 128.067 261.461 128.179 261.464 128.292C261.495 130.207 261.381 132.185 261.873 134.044C261.908 134.163 261.989 134.264 262.097 134.325C262.206 134.385 262.334 134.4 262.454 134.366C262.529 134.344 262.598 134.303 262.654 134.246C262.709 134.19 262.749 134.12 262.77 134.044C263.288 132.18 263.143 130.187 263.174 128.271L261.464 128.313V129.713C261.464 130.837 263.216 130.796 263.205 129.666C263.268 127.734 263.153 125.8 262.863 123.888C262.809 123.752 262.703 123.643 262.569 123.585C262.435 123.526 262.284 123.523 262.148 123.576C262.076 123.607 262.01 123.653 261.956 123.71C261.902 123.768 261.859 123.835 261.832 123.909L261.769 123.894Z" fill="#333333"/>
<path d="M222.632 124.576C222.344 126.492 222.231 128.432 222.295 130.369L224.037 130.327V128.927C224.037 127.824 222.306 127.886 222.326 128.969C222.357 130.884 222.243 132.862 222.736 134.726C222.755 134.785 222.786 134.84 222.826 134.887C222.867 134.934 222.916 134.973 222.972 135.001C223.027 135.029 223.087 135.046 223.149 135.05C223.211 135.055 223.273 135.047 223.332 135.028C223.402 135.005 223.467 134.966 223.519 134.913C223.571 134.861 223.61 134.797 223.633 134.726C224.151 132.857 224.006 130.869 224.037 128.948L222.326 128.99V130.395C222.326 131.524 224.078 131.478 224.068 130.353C224.13 128.421 224.016 126.487 223.726 124.576C223.672 124.439 223.566 124.33 223.432 124.272C223.298 124.213 223.147 124.21 223.011 124.263C222.938 124.295 222.873 124.34 222.819 124.398C222.764 124.455 222.722 124.522 222.694 124.596L222.632 124.576Z" fill="#333333"/>
<path d="M265.84 134.398C258.723 134.288 251.612 134.148 244.495 134.148C240.297 134.148 236.099 134.205 231.9 134.236C229.614 134.236 226.96 133.898 224.721 134.445C224.564 134.497 224.428 134.598 224.333 134.734C224.237 134.87 224.188 135.034 224.192 135.2C224.196 135.366 224.253 135.526 224.355 135.658C224.457 135.789 224.598 135.884 224.758 135.928C226.992 136.48 229.666 136.11 231.947 136.126C236.145 136.152 240.349 136.209 244.547 136.204C251.659 136.204 258.765 136.069 265.876 135.892C266.063 135.872 266.236 135.783 266.359 135.641C266.483 135.499 266.55 135.316 266.545 135.128C266.54 134.939 266.465 134.76 266.335 134.624C266.204 134.489 266.028 134.408 265.84 134.398Z" fill="#333333"/>
<path d="M259.48 127.792C261.553 129.661 261.818 131.655 257.697 131.655C253.576 131.655 226.369 133.003 226.229 131.655C226.089 130.306 223.348 127.985 226.919 127.792C230.49 127.6 257.972 126.455 259.48 127.792Z" fill="#FF842C"/>
<path d="M29.0412 112.016C37.1064 100.944 44.5133 89.2742 51.7387 77.599C52.7754 75.949 53.641 74.1845 54.6984 72.5604C55.0301 72.0399 54.2112 71.6131 53.8846 72.1076C51.153 76.303 47.7632 80.8627 44.8916 85.2246C40.2267 92.2724 35.5618 99.3149 31.0886 106.462C30.052 108.112 29.0671 109.793 28.0875 111.479C27.7195 112.114 28.6473 112.572 29.0516 112L29.0412 112.016Z" fill="#333333"/>
<path d="M28.5555 138.598C26.8917 139.218 28.0113 140.899 28.5555 141.029C29.0998 141.159 54.8969 141.263 55.3686 141.029C55.8403 140.795 56.7836 139.468 55.3686 139.088C53.9536 138.708 30.5252 137.864 28.5555 138.598Z" fill="#FF842C"/>
<path d="M173.95 23.3822C173.189 24.9564 172.72 26.6568 172.566 28.3999C172.493 29.3056 172.214 31.3304 173.286 31.7989C173.378 31.8403 173.48 31.854 173.579 31.8383C173.679 31.8226 173.772 31.7781 173.846 31.7104C174.556 31.117 174.137 29.8001 174.074 29.0141C173.848 27.2755 174.177 25.5097 175.012 23.9703C175.396 23.2833 174.292 22.6795 173.976 23.3822H173.95Z" fill="white"/>
<path d="M176.843 18.7184C176.423 19.0671 176.029 19.4627 175.63 19.8323C175.231 20.2018 174.666 20.8733 174.702 21.4719C174.707 21.5717 174.731 21.6697 174.773 21.7601C174.816 21.8505 174.875 21.9317 174.949 21.9989C175.023 22.0661 175.109 22.118 175.202 22.1518C175.296 22.1855 175.395 22.2003 175.495 22.1954C175.617 22.1903 175.737 22.1545 175.842 22.0913C176.361 21.8206 176.495 21.196 176.697 20.6963C176.857 20.2478 177.179 19.8761 177.599 19.6553C178.32 19.2181 177.537 18.1406 176.843 18.7184Z" fill="white"/>
<path d="M24.5021 6.5383C24.4658 9.01596 24.4191 11.4988 24.4088 13.9817V18.5934C24.4088 19.192 24.2066 20.155 24.5591 20.6755C24.6005 20.7439 24.655 20.8035 24.7194 20.8507C24.7838 20.898 24.8569 20.932 24.9344 20.9509C25.0119 20.9697 25.0924 20.973 25.1712 20.9606C25.25 20.9482 25.3255 20.9203 25.3936 20.8785C25.4786 20.8312 25.5486 20.7609 25.5957 20.6755C25.9119 20.155 25.7305 19.3013 25.7305 18.7548C25.7305 17.162 25.7305 15.564 25.7046 13.9713C25.7046 11.4884 25.6528 9.01075 25.6113 6.5331C25.6113 6.38953 25.5545 6.25184 25.4534 6.15032C25.3523 6.04879 25.2152 5.99176 25.0722 5.99176C24.9293 5.99176 24.7921 6.04879 24.6911 6.15032C24.59 6.25184 24.5332 6.38953 24.5332 6.5331L24.5021 6.5383Z" fill="#333333"/>
<path d="M36.1478 19.8219C34.0745 19.7854 32.0012 19.7386 29.9279 19.7282C28.7875 19.7282 25.5324 19.0983 24.6098 19.952C24.5003 20.0648 24.439 20.2161 24.439 20.3736C24.439 20.5311 24.5003 20.6825 24.6098 20.7952C25.5065 21.6333 28.8342 21.0086 29.9382 21.0034C32.0115 21.0034 34.0848 20.9462 36.1581 20.9097C36.3018 20.9097 36.4396 20.8524 36.5412 20.7504C36.6427 20.6484 36.6998 20.5101 36.6998 20.3658C36.6998 20.2215 36.6427 20.0832 36.5412 19.9812C36.4396 19.8792 36.3018 19.8219 36.1581 19.8219H36.1478Z" fill="#333333"/>
</svg>
