<svg width="70" height="18" viewBox="0 0 70 18" fill="none" xmlns="http://www.w3.org/2000/svg">
<g clip-path="url(#clip0)">
<path d="M25.7276 16.403C24.3806 16.403 23.8652 16.42 23.104 16.4557C23.2173 15.6009 23.2644 14.7387 23.2449 13.8768V4.27789C23.2527 3.43424 23.2057 2.59097 23.104 1.7533C24.0078 1.80596 24.2552 1.80596 25.7105 1.80596H30.3495C33.224 1.80596 34.9078 3.17359 34.9078 5.48751C34.9078 6.55783 34.5539 7.39879 33.8769 7.99511C33.4869 8.3349 33.1673 8.50478 32.4388 8.76812C33.3082 8.96009 33.7704 9.17076 34.2841 9.60908C35.047 10.2751 35.437 11.223 35.437 12.38C35.437 14.9046 33.6278 16.3962 30.542 16.3962L25.7276 16.403ZM29.8427 7.44126C30.7825 7.44126 31.3684 6.89761 31.3684 6.03796C31.3684 5.17831 30.8186 4.68053 29.7997 4.68053H26.707V7.43447L29.8427 7.44126ZM26.7208 13.5098H29.9853C31.1021 13.5098 31.7756 12.8948 31.7756 11.8601C31.7756 10.8255 31.1021 10.2479 29.9664 10.2479H26.7208V13.5098Z" fill="#333333"/>
<path d="M50.0453 9.02972C50.0453 13.661 47.1897 16.7292 42.8788 16.7292C38.5335 16.7292 35.7329 13.7306 35.7329 9.08409C35.7329 4.43756 38.5335 1.49164 42.8977 1.49164C47.2618 1.49164 50.0453 4.43586 50.0453 9.02972ZM46.3564 9.0654C46.3564 6.22481 45.0437 4.50551 42.8977 4.50551C40.7517 4.50551 39.4029 6.2418 39.4029 9.0654C39.4029 11.9247 40.7328 13.6949 42.8977 13.6949C45.0626 13.6949 46.3564 11.9417 46.3564 9.0654Z" fill="#333333"/>
<path d="M54.7462 14.2386C54.2668 14.9759 53.8871 15.5977 53.4507 16.3962H48.7515C49.7085 15.2392 50.0641 14.7822 50.5779 14.0806L54.4799 8.66273L51.1638 4.05018C50.6227 3.27368 50.0423 2.52464 49.425 1.80591H54.0263C54.3951 2.61305 54.8338 3.38723 55.3372 4.11983L56.686 6.15853L58.0158 4.10794C58.7254 3.00195 59.0261 2.47698 59.3113 1.811H63.8696C63.2305 2.5993 62.8044 3.14295 62.1841 4.01959L58.8371 8.64404L62.758 14.0806C63.325 14.8706 63.8215 15.5009 64.5672 16.3962H59.868C59.5244 15.7642 59.1945 15.1679 58.5914 14.2386L56.6585 11.2757L54.7462 14.2386Z" fill="#333333"/>
<path d="M67.9055 16.2671C69.0622 16.2671 69.9999 15.3399 69.9999 14.1962C69.9999 13.0524 69.0622 12.1252 67.9055 12.1252C66.7488 12.1252 65.811 13.0524 65.811 14.1962C65.811 15.3399 66.7488 16.2671 67.9055 16.2671Z" fill="#333333"/>
<path d="M18.2021 0H15.7881L7.33984 8.35526L9.76934 10.7575L18.2021 2.41925V0Z" fill="#333333"/>
<path d="M5.17676 12.8965L8.55468 12.0011L6.08223 9.55469L5.17676 12.8965Z" fill="#333333"/>
<path d="M14.766 9.22349V9.55817V14.6039H3.43634V3.40131H8.15272H8.57024H8.907L12.3468 0.003479H8.57024H8.15272H0V18.0018H18.2023V9.55817V5.82226L14.766 9.22349Z" fill="#333333"/>
</g>
<defs>
<clipPath id="clip0">
<rect width="70" height="18" fill="white"/>
</clipPath>
</defs>
</svg>
